<?xml version="1.0" encoding="UTF-8" standalone="no"?>
<!DOCTYPE svg PUBLIC "-//W3C//DTD SVG 1.1//EN" "http://www.w3.org/Graphics/SVG/1.1/DTD/svg11.dtd">
<svg width="1200" height="900" xmlns="http://www.w3.org/2000/svg" version="1.1">
<rect width="100%" height="100%" fill="white"/>
<g transform="translate(75,0)">
<rect x="0" y="0" width="450" height="450" fill="none" stroke="black" stroke-width="1"/>
<circle cx="225" cy="225" r="31" fill="none" stroke="#c8c8c8" stroke-width="1"/>
<text x="246.92" y="203.08" text-anchor="middle" dominant-baseline="middle" font-family="Arial" font-size="10" fill="black">0.2</text>
<circle cx="225" cy="225" r="62" fill="none" stroke="#c8c8c8" stroke-width="1"/>
<text x="268.841" y="181.159" text-anchor="middle" dominant-baseline="middle" font-family="Arial" font-size="10" fill="black">0.4</text>
<circle cx="225" cy="225" r="93" fill="none" stroke="#c8c8c8" stroke-width="1"/>
<text x="290.761" y="159.239" text-anchor="middle" dominant-baseline="middle" font-family="Arial" font-size="10" fill="black">0.7</text>
<circle cx="225" cy="225" r="124" fill="none" stroke="#c8c8c8" stroke-width="1"/>
<text x="312.681" y="137.319" text-anchor="middle" dominant-baseline="middle" font-family="Arial" font-size="10" fill="black">0.9</text>
<circle cx="225" cy="225" r="155" fill="none" stroke="#c8c8c8" stroke-width="1"/>
<text x="334.602" y="115.398" text-anchor="middle" dominant-baseline="middle" font-family="Arial" font-size="10" fill="black">1.1</text>
<line x1="225" y1="225" x2="380" y2="225" stroke="#c8c8c8" stroke-width="1"/>
<text x="395" y="225" text-anchor="middle" dominant-baseline="middle" font-family="Arial" font-size="10" fill="black">0.0°</text>
<line x1="225" y1="225" x2="359.234" y2="147.5" stroke="#c8c8c8" stroke-width="1"/>
<text x="372.224" y="140" text-anchor="middle" dominant-baseline="middle" font-family="Arial" font-size="10" fill="black">30.0°</text>
<line x1="225" y1="225" x2="302.5" y2="90.7661" stroke="#c8c8c8" stroke-width="1"/>
<text x="310" y="77.7757" text-anchor="middle" dominant-baseline="middle" font-family="Arial" font-size="10" fill="black">60.0°</text>
<line x1="225" y1="225" x2="225" y2="70" stroke="#c8c8c8" stroke-width="1"/>
<text x="225" y="55" text-anchor="middle" dominant-baseline="middle" font-family="Arial" font-size="10" fill="black">90.0°</text>
<line x1="225" y1="225" x2="147.5" y2="90.7661" stroke="#c8c8c8" stroke-width="1"/>
<text x="140" y="77.7757" text-anchor="middle" dominant-baseline="middle" font-family="Arial" font-size="10" fill="black">120.0°</text>
<line x1="225" y1="225" x2="90.7661" y2="147.5" stroke="#c8c8c8" stroke-width="1"/>
<text x="77.7757" y="140" text-anchor="middle" dominant-baseline="middle" font-family="Arial" font-size="10" fill="black">150.0°</text>
<line x1="225" y1="225" x2="70" y2="225" stroke="#c8c8c8" stroke-width="1"/>
<text x="55" y="225" text-anchor="middle" dominant-baseline="middle" font-family="Arial" font-size="10" fill="black">180.0°</text>
<line x1="225" y1="225" x2="90.7661" y2="302.5" stroke="#c8c8c8" stroke-width="1"/>
<text x="77.7757" y="310" text-anchor="middle" dominant-baseline="middle" font-family="Arial" font-size="10" fill="black">210.0°</text>
<line x1="225" y1="225" x2="147.5" y2="359.234" stroke="#c8c8c8" stroke-width="1"/>
<text x="140" y="372.224" text-anchor="middle" dominant-baseline="middle" font-family="Arial" font-size="10" fill="black">240.0°</text>
<line x1="225" y1="225" x2="225" y2="380" stroke="#c8c8c8" stroke-width="1"/>
<text x="225" y="395" text-anchor="middle" dominant-baseline="middle" font-family="Arial" font-size="10" fill="black">270.0°</text>
<line x1="225" y1="225" x2="302.5" y2="359.234" stroke="#c8c8c8" stroke-width="1"/>
<text x="310" y="372.224" text-anchor="middle" dominant-baseline="middle" font-family="Arial" font-size="10" fill="black">300.0°</text>
<line x1="225" y1="225" x2="359.234" y2="302.5" stroke="#c8c8c8" stroke-width="1"/>
<text x="372.224" y="310" text-anchor="middle" dominant-baseline="middle" font-family="Arial" font-size="10" fill="black">330.0°</text>
<circle cx="225" cy="225" r="7.75" fill="none" stroke="#e6e6e6" stroke-width="1"/>
<circle cx="225" cy="225" r="15.5" fill="none" stroke="#e6e6e6" stroke-width="1"/>
<circle cx="225" cy="225" r="23.25" fill="none" stroke="#e6e6e6" stroke-width="1"/>
<circle cx="225" cy="225" r="38.75" fill="none" stroke="#e6e6e6" stroke-width="1"/>
<circle cx="225" cy="225" r="46.5" fill="none" stroke="#e6e6e6" stroke-width="1"/>
<circle cx="225" cy="225" r="54.25" fill="none" stroke="#e6e6e6" stroke-width="1"/>
<circle cx="225" cy="225" r="69.75" fill="none" stroke="#e6e6e6" stroke-width="1"/>
<circle cx="225" cy="225" r="77.5" fill="none" stroke="#e6e6e6" stroke-width="1"/>
<circle cx="225" cy="225" r="85.25" fill="none" stroke="#e6e6e6" stroke-width="1"/>
<circle cx="225" cy="225" r="100.75" fill="none" stroke="#e6e6e6" stroke-width="1"/>
<circle cx="225" cy="225" r="108.5" fill="none" stroke="#e6e6e6" stroke-width="1"/>
<circle cx="225" cy="225" r="116.25" fill="none" stroke="#e6e6e6" stroke-width="1"/>
<circle cx="225" cy="225" r="131.75" fill="none" stroke="#e6e6e6" stroke-width="1"/>
<circle cx="225" cy="225" r="139.5" fill="none" stroke="#e6e6e6" stroke-width="1"/>
<circle cx="225" cy="225" r="147.25" fill="none" stroke="#e6e6e6" stroke-width="1"/>
<line x1="225" y1="225" x2="374.719" y2="184.883" stroke="#e6e6e6" stroke-width="1"/>
<line x1="225" y1="225" x2="334.602" y2="115.398" stroke="#e6e6e6" stroke-width="1"/>
<line x1="225" y1="225" x2="265.117" y2="75.2815" stroke="#e6e6e6" stroke-width="1"/>
<line x1="225" y1="225" x2="184.883" y2="75.2815" stroke="#e6e6e6" stroke-width="1"/>
<line x1="225" y1="225" x2="115.398" y2="115.398" stroke="#e6e6e6" stroke-width="1"/>
<line x1="225" y1="225" x2="75.2815" y2="184.883" stroke="#e6e6e6" stroke-width="1"/>
<line x1="225" y1="225" x2="75.2815" y2="265.117" stroke="#e6e6e6" stroke-width="1"/>
<line x1="225" y1="225" x2="115.398" y2="334.602" stroke="#e6e6e6" stroke-width="1"/>
<line x1="225" y1="225" x2="184.883" y2="374.719" stroke="#e6e6e6" stroke-width="1"/>
<line x1="225" y1="225" x2="265.117" y2="374.719" stroke="#e6e6e6" stroke-width="1"/>
<line x1="225" y1="225" x2="334.602" y2="334.602" stroke="#e6e6e6" stroke-width="1"/>
<line x1="225" y1="225" x2="374.719" y2="265.117" stroke="#e6e6e6" stroke-width="1"/>
<path d="M384.091 225 L 383.098 217.088 L 380.141 209.434 L 375.279 202.288 L 368.612 195.889 L 360.275 190.459 L 350.439 186.197 L 339.302 183.276 L 327.09 181.837 L 314.047 181.985 L 300.435 183.79 L 286.521 187.281 L 272.579 192.45 L 258.879 199.245 L 245.682 207.58 L 233.234 217.329 L 228.236 221.668 L 238.528 209.6 L 247.469 196.686 L 254.917 183.164 L 260.771 169.29 L 264.963 155.332 L 267.468 141.561 L 268.299 128.248 L 267.509 115.66 L 265.189 104.047 L 261.466 93.6446 L 256.5 84.662 L 250.478 77.2821 L 243.614 71.655 L 236.141 67.8957 L 228.305 66.0811 L 220.363 66.2481 L 212.57 68.3934 L 205.183 72.4732 L 198.445 78.4041 L 192.586 86.065 L 187.816 95.2999 L 184.319 105.922 L 182.248 117.715 L 181.725 130.443 L 182.835 143.851 L 185.624 157.673 L 190.099 171.636 L 196.226 185.469 L 203.934 198.907 L 213.112 211.695 L 223.615 223.598 L 214.735 215.597 L 202.145 206.076 L 188.846 197.992 L 175.087 191.465 L 161.13 186.576 L 147.248 183.369 L 133.712 181.846 L 120.791 181.97 L 108.743 183.667 L 97.8104 186.824 L 88.2132 191.295 L 80.1465 196.902 L 73.7743 203.443 L 69.2266 210.692 L 66.5963 218.408 L 65.9372 226.337 L 67.2628 234.224 L 70.5458 241.81 L 75.7194 248.847 L 82.6777 255.098 L 91.279 260.345 L 101.349 264.392 L 112.682 267.073 L 125.052 268.251 L 138.209 267.829 L 151.891 265.741 L 165.829 261.966 L 179.749 256.52 L 193.383 249.458 L 206.47 240.875 L 218.769 230.904 L 219.945 230.293 L 209.87 242.518 L 201.171 255.552 L 193.985 269.151 L 188.407 283.058 L 184.498 297.005 L 182.276 310.717 L 181.722 323.926 L 182.777 336.367 L 185.343 347.792 L 189.287 357.97 L 194.445 366.695 L 200.623 373.79 L 207.606 379.11 L 215.158 382.547 L 223.03 384.03 L 230.965 383.529 L 238.707 381.054 L 246.002 376.656 L 252.608 370.425 L 258.298 362.488 L 262.866 353.006 L 266.133 342.171 L 267.951 330.203 L 268.204 317.343 L 266.814 303.846 L 263.741 289.981 L 258.985 276.021 L 252.586 262.236 L 244.622 248.891 L 235.21 236.236 L 225.499 225.497 L 237.322 236.098 L 250.048 245.388 L 263.443 253.217 L 277.254 259.473 L 291.217 264.081 L 305.06 267.005 L 318.51 268.247 L 331.302 267.852 L 343.179 265.9 L 353.902 262.511 L 363.255 257.836 L 371.047 252.057 L 377.121 245.381 L 381.352 238.036 L 383.653 230.267 L 383.978 222.327 L 382.321 214.473 L 378.714 206.962 L 373.232 200.041 L 365.987 193.944 L 357.125 188.886 L 346.828 185.058 L 335.304 182.621 L 322.784 181.705 L 309.52 182.405 L 295.775 184.776 L 281.822 188.834 L 267.931 194.557 L 254.372 201.882 L 241.4 210.708 L 229.257 220.898 L 231.838 217.718 L 241.693 205.34 L 250.146 192.194 L 257.068 178.525 L 262.368 164.592 L 265.994 150.666 L 267.932 137.019 L 268.211 123.921 L 266.894 111.634 L 264.087 100.403 L 259.926 90.4557 L 254.582 81.9932 L 248.252 75.1876 L 241.157 70.1777 L 233.534 67.0658 L 225.633 65.9154 L 217.712 66.7501 L 210.028 69.5529 L 202.832 74.2664 L 196.365 80.7944 L 190.851 89.0037 L 186.489 98.7275 L 183.456 109.768 L 181.895 121.904 L 181.913 134.89 L 183.585 148.467 L 186.942 162.367 L 191.977 176.316 L 198.646 190.045 L 206.863 203.292 L 216.505 215.808 L 222.585 222.636 L 210.595 212.244 L 197.74 203.19 L 184.257 195.618 L 170.402 189.635 L 156.44 185.309 L 142.644 182.67 L 129.285 181.707 L 116.63 182.37 L 104.931 184.573 L 94.4235 188.189 L 85.3209 193.063 L 77.8073 199.009 L 72.0359 205.814 L 68.1246 213.247 L 66.1532 221.063 L 66.162 229.007 L 68.1509 236.821 L 72.0792 244.25 L 77.8666 251.048 L 85.395 256.985 L 94.511 261.849 L 105.03 265.453 L 116.739 267.642 L 129.401 268.292 L 142.765 267.314 L 156.564 264.66 L 170.526 260.319 L 184.379 254.321 L 197.857 246.736 L 210.706 237.669 L 222.687 227.266 L 216.413 234.3 L 206.783 246.823 L 198.58 260.075 L 191.925 273.807 L 186.904 287.757 L 183.562 301.656 L 181.906 315.229 L 181.902 328.208 L 183.477 340.335 L 186.523 351.365 L 190.895 361.076 L 196.419 369.271 L 202.893 375.784 L 210.095 380.481 L 217.782 383.266 L 225.704 384.083 L 233.603 382.915 L 241.223 379.786 L 248.312 374.76 L 254.634 367.939 L 259.968 359.462 L 264.118 349.502 L 266.913 338.261 L 268.215 325.965 L 267.923 312.862 L 265.969 299.211 L 262.328 285.284 L 257.013 271.352 L 250.077 257.686 L 241.612 244.546 L 231.745 232.176 L 229.361 229.198 L 241.512 239.377 L 254.49 248.19 L 268.054 255.501 L 281.946 261.21 L 295.899 265.253 L 309.64 267.609 L 322.899 268.293 L 335.411 267.364 L 346.925 264.914 L 357.211 261.074 L 366.058 256.006 L 373.289 249.901 L 378.754 242.974 L 382.344 235.458 L 383.984 227.603 L 383.641 219.663 L 381.322 211.896 L 377.075 204.557 L 370.986 197.887 L 363.179 192.117 L 353.813 187.453 L 343.078 184.076 L 331.192 182.138 L 318.393 181.757 L 304.938 183.014 L 291.093 185.952 L 277.13 190.575 L 263.321 196.846 L 249.932 204.689 L 237.213 213.991 L 225.399 224.603 L 235.3 213.655 L 244.7 200.993 L 252.65 187.643 L 259.035 173.855 L 263.776 159.894 L 266.834 146.032 L 268.209 132.54 L 267.941 119.686 L 266.11 107.727 L 262.831 96.9039 L 258.252 87.4348 L 252.553 79.512 L 245.94 73.2966 L 238.64 68.9154 L 230.895 66.458 L 222.959 65.9746 L 215.089 67.4751 L 207.542 70.9288 L 200.565 76.2651 L 194.394 83.3751 L 189.246 92.114 L 185.313 102.304 L 182.761 113.739 L 181.72 126.188 L 182.288 139.403 L 184.525 153.119 L 188.449 167.066 L 194.041 180.971 L 201.242 194.567 L 209.953 207.594 L 220.041 219.812 L 218.664 219.002 L 206.357 209.042 L 193.263 200.472 L 179.626 193.425 L 165.705 187.993 L 151.768 184.233 L 138.089 182.16 L 124.938 181.752 L 112.577 182.945 L 101.253 185.638 L 91.1959 189.697 L 82.6084 194.953 L 75.6654 201.212 L 70.5082 208.256 L 67.2423 215.846 L 65.9343 223.733 L 66.6111 231.662 L 69.2587 239.375 L 73.8231 246.618 L 80.211 253.152 L 88.292 258.75 L 97.902 263.21 L 108.846 266.354 L 120.903 268.038 L 133.83 268.148 L 147.37 266.61 L 161.254 263.388 L 175.21 258.484 L 188.967 251.943 L 202.261 243.846 L 214.843 234.312 L 223.516 226.503 L 213.024 238.416 L 203.859 251.21 L 196.164 264.652 L 190.051 278.488 L 185.592 292.451 L 182.818 306.27 L 181.723 319.673 L 182.26 332.394 L 184.344 344.178 L 187.853 354.788 L 192.634 364.01 L 198.501 371.656 L 205.246 377.571 L 212.638 381.634 L 220.433 383.762 L 228.376 383.912 L 236.209 382.079 L 243.678 378.303 L 250.536 372.66 L 256.549 365.265 L 261.505 356.269 L 265.216 345.854 L 267.523 334.232 L 268.299 321.636 L 267.453 308.319 L 264.933 294.544 L 260.726 280.586 L 254.858 266.714 L 247.395 253.196 L 238.443 240.288 L 228.139 228.229 L 233.341 232.763 L 245.796 242.5 L 258.999 250.822 L 272.702 257.604 L 286.645 262.757 L 300.557 266.234 L 314.166 268.023 L 327.203 268.157 L 339.406 266.704 L 350.533 263.771 L 360.356 259.498 L 368.678 254.059 L 375.33 247.652 L 380.175 240.5 L 383.116 232.842 L 384.091 224.929 L 383.081 217.019 L 380.106 209.368 L 375.227 202.227 L 368.544 195.836 L 360.194 190.415 L 350.345 186.165 L 339.198 183.257 L 326.978 181.831 L 313.928 181.994 L 300.312 183.814 L 286.397 187.32 L 272.455 192.503 L 258.759 199.313 L 245.567 207.661 L 233.128 217.422 L 228.333 221.565 L 238.614 209.489 L 247.541 196.568 L 254.977 183.042 L 260.815 169.166 L 264.993 155.208 L 267.483 141.44 L 268.299 128.133 L 267.495 115.552 L 265.162 103.949 L 261.427 93.5584 L 256.45 84.5891 L 250.42 77.2242 L 243.55 71.6132 L 236.073 67.871 L 228.235 66.0738 L 220.292 66.2585 L 212.502 68.4213 L 205.119 72.518 L 198.388 78.4647 L 192.539 86.1402 L 187.779 95.3886 L 184.294 106.022 L 182.236 117.825 L 181.728 130.56 L 182.853 143.973 L 185.656 157.797 L 190.146 171.76 L 196.288 185.591 L 204.009 199.024 L 213.2 211.805 L 223.714 223.699 L 214.627 215.507 L 202.03 205.997 L 188.725 197.927 L 174.963 191.414 L 161.006 186.54 L 147.126 183.348 L 133.594 181.84 L 120.68 181.979 L 108.641 183.689 L 97.7189 186.859 L 88.1346 191.34 L 80.0821 196.957 L 73.7257 203.505 L 69.1948 210.759 L 66.5817 218.478 L 65.9403 226.408 L 67.2834 234.293 L 70.5836 241.875 L 75.7734 248.906 L 82.7472 255.149 L 91.3623 260.386 L 101.444 264.422 L 112.788 267.09 L 125.165 268.255 L 138.329 267.817 L 152.014 265.715 L 165.953 261.925 L 179.872 256.464 L 193.501 249.388 L 206.584 240.793 L 218.874 230.809 L 219.85 230.397 L 209.786 242.631 L 201.101 255.67 L 193.928 269.274 L 188.365 283.182 L 184.47 297.128 L 182.264 310.837 L 181.725 324.04 L 182.793 336.474 L 185.372 347.889 L 189.327 358.055 L 194.495 366.766 L 200.682 373.845 L 207.671 379.149 L 215.227 382.569 L 223.1 384.034 L 231.035 383.515 L 238.774 381.023 L 246.064 376.609 L 252.663 370.362 L 258.343 362.41 L 262.901 352.915 L 266.156 342.07 L 267.96 330.092 L 268.199 317.225 L 266.794 303.724 L 263.706 289.857 L 258.936 275.898 L 252.522 262.115 L 244.545 248.775 L 235.12 236.127 L 225.599 225.596 L 237.431 236.186 L 250.164 245.464 L 263.564 253.28 L 277.378 259.522 L 291.341 264.115 L 305.181 267.023 L 318.628 268.251 L 331.412 267.841 L 343.28 265.876 L 353.992 262.475 L 363.331 257.79 L 371.109 252.001" fill="none" stroke="#ff0000" stroke-width="2.5"  />
<text x="225" y="25" text-anchor="middle" font-family="Arial" font-size="18" font-weight="bold">4-petal rose</text>
<text x="225" y="440" text-anchor="middle" font-family="Arial" font-size="14">X axis (°)</text>
<text x="16.6667" y="225" text-anchor="middle" font-family="Arial" font-size="14" transform="rotate(-90 16.6667,225)">Y axis (°)</text>
<rect x="290" y="60" width="150" height="30" fill="white" fill-opacity="0.8" stroke="black" stroke-width="1"/>
<line x1="300" y1="75" x2="330" y2="75" stroke="#ff0000" stroke-width="2.5"/>
<text x="335" y="80" font-family="Arial" font-size="12">r = |cos(2θ)|</text>
</g>
<g transform="translate(675,0)">
<rect x="0" y="0" width="450" height="450" fill="none" stroke="black" stroke-width="1"/>
<circle cx="225" cy="225" r="31" fill="none" stroke="#c8c8c8" stroke-width="1"/>
<text x="246.92" y="203.08" text-anchor="middle" dominant-baseline="middle" font-family="Arial" font-size="10" fill="black">0.4</text>
<circle cx="225" cy="225" r="62" fill="none" stroke="#c8c8c8" stroke-width="1"/>
<text x="268.841" y="181.159" text-anchor="middle" dominant-baseline="middle" font-family="Arial" font-size="10" fill="black">0.9</text>
<circle cx="225" cy="225" r="93" fill="none" stroke="#c8c8c8" stroke-width="1"/>
<text x="290.761" y="159.239" text-anchor="middle" dominant-baseline="middle" font-family="Arial" font-size="10" fill="black">1.3</text>
<circle cx="225" cy="225" r="124" fill="none" stroke="#c8c8c8" stroke-width="1"/>
<text x="312.681" y="137.319" text-anchor="middle" dominant-baseline="middle" font-family="Arial" font-size="10" fill="black">1.8</text>
<circle cx="225" cy="225" r="155" fill="none" stroke="#c8c8c8" stroke-width="1"/>
<text x="334.602" y="115.398" text-anchor="middle" dominant-baseline="middle" font-family="Arial" font-size="10" fill="black">2.2</text>
<line x1="225" y1="225" x2="380" y2="225" stroke="#c8c8c8" stroke-width="1"/>
<text x="395" y="225" text-anchor="middle" dominant-baseline="middle" font-family="Arial" font-size="10" fill="black">0.0°</text>
<line x1="225" y1="225" x2="359.234" y2="147.5" stroke="#c8c8c8" stroke-width="1"/>
<text x="372.224" y="140" text-anchor="middle" dominant-baseline="middle" font-family="Arial" font-size="10" fill="black">30.0°</text>
<line x1="225" y1="225" x2="302.5" y2="90.7661" stroke="#c8c8c8" stroke-width="1"/>
<text x="310" y="77.7757" text-anchor="middle" dominant-baseline="middle" font-family="Arial" font-size="10" fill="black">60.0°</text>
<line x1="225" y1="225" x2="225" y2="70" stroke="#c8c8c8" stroke-width="1"/>
<text x="225" y="55" text-anchor="middle" dominant-baseline="middle" font-family="Arial" font-size="10" fill="black">90.0°</text>
<line x1="225" y1="225" x2="147.5" y2="90.7661" stroke="#c8c8c8" stroke-width="1"/>
<text x="140" y="77.7757" text-anchor="middle" dominant-baseline="middle" font-family="Arial" font-size="10" fill="black">120.0°</text>
<line x1="225" y1="225" x2="90.7661" y2="147.5" stroke="#c8c8c8" stroke-width="1"/>
<text x="77.7757" y="140" text-anchor="middle" dominant-baseline="middle" font-family="Arial" font-size="10" fill="black">150.0°</text>
<line x1="225" y1="225" x2="70" y2="225" stroke="#c8c8c8" stroke-width="1"/>
<text x="55" y="225" text-anchor="middle" dominant-baseline="middle" font-family="Arial" font-size="10" fill="black">180.0°</text>
<line x1="225" y1="225" x2="90.7661" y2="302.5" stroke="#c8c8c8" stroke-width="1"/>
<text x="77.7757" y="310" text-anchor="middle" dominant-baseline="middle" font-family="Arial" font-size="10" fill="black">210.0°</text>
<line x1="225" y1="225" x2="147.5" y2="359.234" stroke="#c8c8c8" stroke-width="1"/>
<text x="140" y="372.224" text-anchor="middle" dominant-baseline="middle" font-family="Arial" font-size="10" fill="black">240.0°</text>
<line x1="225" y1="225" x2="225" y2="380" stroke="#c8c8c8" stroke-width="1"/>
<text x="225" y="395" text-anchor="middle" dominant-baseline="middle" font-family="Arial" font-size="10" fill="black">270.0°</text>
<line x1="225" y1="225" x2="302.5" y2="359.234" stroke="#c8c8c8" stroke-width="1"/>
<text x="310" y="372.224" text-anchor="middle" dominant-baseline="middle" font-family="Arial" font-size="10" fill="black">300.0°</text>
<line x1="225" y1="225" x2="359.234" y2="302.5" stroke="#c8c8c8" stroke-width="1"/>
<text x="372.224" y="310" text-anchor="middle" dominant-baseline="middle" font-family="Arial" font-size="10" fill="black">330.0°</text>
<path d="M384.091 225 L 383.62 215.02 L 382.214 205.139 L 379.889 195.453 L 376.672 186.057 L 372.602 177.041 L 367.725 168.491 L 362.1 160.486 L 355.79 153.098 L 348.87 146.39 L 341.417 140.418 L 333.516 135.228 L 325.256 130.853 L 316.728 127.32 L 308.024 124.641 L 299.238 122.82 L 290.461 121.85 L 281.783 121.713 L 273.29 122.38 L 265.062 123.814 L 257.177 125.97 L 249.702 128.793 L 242.698 132.222 L 236.219 136.191 L 230.308 140.627 L 225 145.454 L 220.319 150.596 L 216.28 155.973 L 212.888 161.505 L 210.138 167.114 L 208.015 172.725 L 206.497 178.267 L 205.552 183.67 L 205.14 188.875 L 205.216 193.825 L 205.727 198.472 L 206.616 202.777 L 207.823 206.708 L 209.284 210.242 L 210.935 213.364 L 212.709 216.07 L 214.545 218.365 L 216.378 220.26 L 218.15 221.777 L 219.806 222.944 L 221.297 223.797 L 222.579 224.378 L 223.616 224.736 L 224.378 224.921 L 224.843 224.99 L 225 225 L 224.843 225.01 L 224.378 225.079 L 223.616 225.264 L 222.58 225.621 L 221.297 226.203 L 219.806 227.056 L 218.15 228.223 L 216.378 229.74 L 214.545 231.635 L 212.71 233.929 L 210.935 236.636 L 209.284 239.758 L 207.823 243.292 L 206.616 247.222 L 205.727 251.527 L 205.216 256.175 L 205.14 261.125 L 205.552 266.329 L 206.497 271.733 L 208.015 277.274 L 210.137 282.885 L 212.887 288.495 L 216.28 294.027 L 220.319 299.403 L 225 304.545 L 230.308 309.373 L 236.219 313.809 L 242.698 317.778 L 249.701 321.207 L 257.176 324.03 L 265.062 326.186 L 273.289 327.62 L 281.782 328.287 L 290.46 328.15 L 299.237 327.18 L 308.024 325.359 L 316.727 322.681 L 325.256 319.147 L 333.516 314.773 L 341.416 309.582 L 348.869 303.611 L 355.79 296.903 L 362.099 289.515 L 367.725 281.51 L 372.601 272.959 L 376.672 263.944 L 379.889 254.547 L 382.214 244.862 L 383.62 234.98 L 384.091 225.001 L 383.62 215.021 L 382.214 205.14 L 379.889 195.454 L 376.673 186.058 L 372.602 177.042 L 367.726 168.492 L 362.1 160.486 L 355.791 153.098 L 348.87 146.391 L 341.417 140.419 L 333.517 135.228 L 325.257 130.854 L 316.729 127.32 L 308.025 124.641 L 299.239 122.82 L 290.462 121.85 L 281.784 121.713 L 273.29 122.38 L 265.063 123.814 L 257.178 125.97 L 249.703 128.793 L 242.699 132.222 L 236.22 136.19 L 230.309 140.626 L 225.001 145.454 L 220.319 150.596 L 216.28 155.972 L 212.888 161.504 L 210.138 167.114 L 208.015 172.725 L 206.497 178.266 L 205.552 183.67 L 205.14 188.874 L 205.216 193.824 L 205.727 198.472 L 206.616 202.777 L 207.823 206.708 L 209.284 210.241 L 210.934 213.364 L 212.709 216.07 L 214.544 218.365 L 216.378 220.26 L 218.15 221.776 L 219.806 222.944 L 221.297 223.797 L 222.579 224.378 L 223.616 224.736 L 224.378 224.921 L 224.843 224.99 L 225 225 L 224.843 225.01 L 224.378 225.079 L 223.616 225.264 L 222.58 225.621 L 221.298 226.203 L 219.807 227.056 L 218.15 228.223 L 216.378 229.74 L 214.545 231.635 L 212.71 233.929 L 210.935 236.636 L 209.284 239.758 L 207.823 243.291 L 206.616 247.222 L 205.727 251.527 L 205.216 256.174 L 205.14 261.124 L 205.552 266.329 L 206.497 271.732 L 208.015 277.274 L 210.137 282.885 L 212.887 288.494 L 216.279 294.026 L 220.318 299.403 L 224.999 304.545 L 230.308 309.373 L 236.218 313.809 L 242.697 317.777 L 249.701 321.207 L 257.176 324.03 L 265.061 326.186 L 273.288 327.62 L 281.781 328.287 L 290.46 328.15 L 299.237 327.18 L 308.023 325.359 L 316.727 322.681 L 325.255 319.147 L 333.515 314.773 L 341.416 309.583 L 348.868 303.611 L 355.789 296.904 L 362.099 289.515 L 367.724 281.51 L 372.601 272.96 L 376.672 263.944 L 379.889 254.548 L 382.214 244.862 L 383.62 234.981 L 384.091 225.002 L 383.62 215.022 L 382.214 205.141 L 379.889 195.455 L 376.673 186.059 L 372.603 177.043 L 367.726 168.493 L 362.101 160.487 L 355.791 153.099 L 348.871 146.391 L 341.418 140.419 L 333.518 135.228 L 325.258 130.854 L 316.73 127.32 L 308.026 124.641 L 299.24 122.821 L 290.463 121.85 L 281.784 121.713 L 273.291 122.38 L 265.064 123.814 L 257.178 125.97 L 249.703 128.792 L 242.7 132.222 L 236.22 136.19 L 230.309 140.626 L 225.001 145.454 L 220.32 150.595 L 216.281 155.972 L 212.888 161.504 L 210.138 167.113 L 208.015 172.725 L 206.497 178.266 L 205.552 183.67 L 205.14 188.874 L 205.216 193.824 L 205.726 198.472 L 206.616 202.777 L 207.822 206.707 L 209.284 210.241 L 210.934 213.363 L 212.709 216.07 L 214.544 218.364 L 216.377 220.26 L 218.15 221.776 L 219.806 222.943 L 221.297 223.797 L 222.579 224.378 L 223.616 224.736 L 224.378 224.921 L 224.843 224.99 L 225 225 L 224.843 225.01 L 224.378 225.079 L 223.616 225.264 L 222.58 225.621 L 221.298 226.203 L 219.807 227.056 L 218.15 228.223 L 216.378 229.74 L 214.545 231.635 L 212.71 233.929 L 210.935 236.635 L 209.284 239.758 L 207.823 243.291 L 206.616 247.222 L 205.727 251.526 L 205.216 256.174 L 205.14 261.124 L 205.552 266.328 L 206.497 271.732 L 208.015 277.273 L 210.137 282.884 L 212.887 288.494 L 216.279 294.026 L 220.318 299.402 L 224.999 304.544 L 230.307 309.372 L 236.218 313.808 L 242.697 317.777 L 249.7 321.206 L 257.175 324.029 L 265.061 326.185 L 273.288 327.62 L 281.781 328.287 L 290.459 328.15 L 299.236 327.18 L 308.022 325.36 L 316.726 322.681 L 325.254 319.148 L 333.514 314.774 L 341.415 309.583 L 348.868 303.612 L 355.789 296.904 L 362.098 289.516 L 367.724 281.511 L 372.601 272.961 L 376.671 263.945 L 379.888 254.549 L 382.214 244.863 L 383.62 234.982" fill="none" stroke="#0000ff" stroke-width="2.5"  />
<text x="225" y="25" text-anchor="middle" font-family="Arial" font-size="18" font-weight="bold">Cardioid</text>
<text x="225" y="440" text-anchor="middle" font-family="Arial" font-size="14">x = r·cos(θ)</text>
<text x="16.6667" y="225" text-anchor="middle" font-family="Arial" font-size="14" transform="rotate(-90 16.6667,225)">y = r·sin(θ)</text>
<rect x="290" y="60" width="150" height="30" fill="white" fill-opacity="0.8" stroke="black" stroke-width="1"/>
<line x1="300" y1="75" x2="330" y2="75" stroke="#0000ff" stroke-width="2.5"/>
<text x="335" y="80" font-family="Arial" font-size="12">r = 1 + cos(θ)</text>
</g>
<g transform="translate(75,450)">
<rect x="0" y="0" width="450" height="450" fill="none" stroke="black" stroke-width="1"/>
<circle cx="225" cy="225" r="31" fill="none" stroke="#c8c8c8" stroke-width="1"/>
<text x="246.92" y="203.08" text-anchor="middle" dominant-baseline="middle" font-family="Arial" font-size="10" fill="black">0.9</text>
<circle cx="225" cy="225" r="62" fill="none" stroke="#c8c8c8" stroke-width="1"/>
<text x="268.841" y="181.159" text-anchor="middle" dominant-baseline="middle" font-family="Arial" font-size="10" fill="black">1.8</text>
<circle cx="225" cy="225" r="93" fill="none" stroke="#c8c8c8" stroke-width="1"/>
<text x="290.761" y="159.239" text-anchor="middle" dominant-baseline="middle" font-family="Arial" font-size="10" fill="black">2.6</text>
<circle cx="225" cy="225" r="124" fill="none" stroke="#c8c8c8" stroke-width="1"/>
<text x="312.681" y="137.319" text-anchor="middle" dominant-baseline="middle" font-family="Arial" font-size="10" fill="black">3.5</text>
<circle cx="225" cy="225" r="155" fill="none" stroke="#c8c8c8" stroke-width="1"/>
<text x="334.602" y="115.398" text-anchor="middle" dominant-baseline="middle" font-family="Arial" font-size="10" fill="black">4.4</text>
<line x1="225" y1="225" x2="380" y2="225" stroke="#c8c8c8" stroke-width="1"/>
<text x="395" y="225" text-anchor="middle" dominant-baseline="middle" font-family="Arial" font-size="10" fill="black">0.0°</text>
<line x1="225" y1="225" x2="359.234" y2="147.5" stroke="#c8c8c8" stroke-width="1"/>
<text x="372.224" y="140" text-anchor="middle" dominant-baseline="middle" font-family="Arial" font-size="10" fill="black">30.0°</text>
<line x1="225" y1="225" x2="302.5" y2="90.7661" stroke="#c8c8c8" stroke-width="1"/>
<text x="310" y="77.7757" text-anchor="middle" dominant-baseline="middle" font-family="Arial" font-size="10" fill="black">60.0°</text>
<line x1="225" y1="225" x2="225" y2="70" stroke="#c8c8c8" stroke-width="1"/>
<text x="225" y="55" text-anchor="middle" dominant-baseline="middle" font-family="Arial" font-size="10" fill="black">90.0°</text>
<line x1="225" y1="225" x2="147.5" y2="90.7661" stroke="#c8c8c8" stroke-width="1"/>
<text x="140" y="77.7757" text-anchor="middle" dominant-baseline="middle" font-family="Arial" font-size="10" fill="black">120.0°</text>
<line x1="225" y1="225" x2="90.7661" y2="147.5" stroke="#c8c8c8" stroke-width="1"/>
<text x="77.7757" y="140" text-anchor="middle" dominant-baseline="middle" font-family="Arial" font-size="10" fill="black">150.0°</text>
<line x1="225" y1="225" x2="70" y2="225" stroke="#c8c8c8" stroke-width="1"/>
<text x="55" y="225" text-anchor="middle" dominant-baseline="middle" font-family="Arial" font-size="10" fill="black">180.0°</text>
<line x1="225" y1="225" x2="90.7661" y2="302.5" stroke="#c8c8c8" stroke-width="1"/>
<text x="77.7757" y="310" text-anchor="middle" dominant-baseline="middle" font-family="Arial" font-size="10" fill="black">210.0°</text>
<line x1="225" y1="225" x2="147.5" y2="359.234" stroke="#c8c8c8" stroke-width="1"/>
<text x="140" y="372.224" text-anchor="middle" dominant-baseline="middle" font-family="Arial" font-size="10" fill="black">240.0°</text>
<line x1="225" y1="225" x2="225" y2="380" stroke="#c8c8c8" stroke-width="1"/>
<text x="225" y="395" text-anchor="middle" dominant-baseline="middle" font-family="Arial" font-size="10" fill="black">270.0°</text>
<line x1="225" y1="225" x2="302.5" y2="359.234" stroke="#c8c8c8" stroke-width="1"/>
<text x="310" y="372.224" text-anchor="middle" dominant-baseline="middle" font-family="Arial" font-size="10" fill="black">300.0°</text>
<line x1="225" y1="225" x2="359.234" y2="302.5" stroke="#c8c8c8" stroke-width="1"/>
<text x="372.224" y="310" text-anchor="middle" dominant-baseline="middle" font-family="Arial" font-size="10" fill="black">330.0°</text>
<circle cx="225" cy="225" r="7.75" fill="none" stroke="#e6e6e6" stroke-width="1"/>
<circle cx="225" cy="225" r="15.5" fill="none" stroke="#e6e6e6" stroke-width="1"/>
<circle cx="225" cy="225" r="23.25" fill="none" stroke="#e6e6e6" stroke-width="1"/>
<circle cx="225" cy="225" r="38.75" fill="none" stroke="#e6e6e6" stroke-width="1"/>
<circle cx="225" cy="225" r="46.5" fill="none" stroke="#e6e6e6" stroke-width="1"/>
<circle cx="225" cy="225" r="54.25" fill="none" stroke="#e6e6e6" stroke-width="1"/>
<circle cx="225" cy="225" r="69.75" fill="none" stroke="#e6e6e6" stroke-width="1"/>
<circle cx="225" cy="225" r="77.5" fill="none" stroke="#e6e6e6" stroke-width="1"/>
<circle cx="225" cy="225" r="85.25" fill="none" stroke="#e6e6e6" stroke-width="1"/>
<circle cx="225" cy="225" r="100.75" fill="none" stroke="#e6e6e6" stroke-width="1"/>
<circle cx="225" cy="225" r="108.5" fill="none" stroke="#e6e6e6" stroke-width="1"/>
<circle cx="225" cy="225" r="116.25" fill="none" stroke="#e6e6e6" stroke-width="1"/>
<circle cx="225" cy="225" r="131.75" fill="none" stroke="#e6e6e6" stroke-width="1"/>
<circle cx="225" cy="225" r="139.5" fill="none" stroke="#e6e6e6" stroke-width="1"/>
<circle cx="225" cy="225" r="147.25" fill="none" stroke="#e6e6e6" stroke-width="1"/>
<line x1="225" y1="225" x2="374.719" y2="184.883" stroke="#e6e6e6" stroke-width="1"/>
<line x1="225" y1="225" x2="334.602" y2="115.398" stroke="#e6e6e6" stroke-width="1"/>
<line x1="225" y1="225" x2="265.117" y2="75.2815" stroke="#e6e6e6" stroke-width="1"/>
<line x1="225" y1="225" x2="184.883" y2="75.2815" stroke="#e6e6e6" stroke-width="1"/>
<line x1="225" y1="225" x2="115.398" y2="115.398" stroke="#e6e6e6" stroke-width="1"/>
<line x1="225" y1="225" x2="75.2815" y2="184.883" stroke="#e6e6e6" stroke-width="1"/>
<line x1="225" y1="225" x2="75.2815" y2="265.117" stroke="#e6e6e6" stroke-width="1"/>
<line x1="225" y1="225" x2="115.398" y2="334.602" stroke="#e6e6e6" stroke-width="1"/>
<line x1="225" y1="225" x2="184.883" y2="374.719" stroke="#e6e6e6" stroke-width="1"/>
<line x1="225" y1="225" x2="265.117" y2="374.719" stroke="#e6e6e6" stroke-width="1"/>
<line x1="225" y1="225" x2="334.602" y2="334.602" stroke="#e6e6e6" stroke-width="1"/>
<line x1="225" y1="225" x2="374.719" y2="265.117" stroke="#e6e6e6" stroke-width="1"/>
<path d="M225 225 L 225.795 224.92 L 226.567 224.682 L 227.291 224.291 L 227.945 223.755 L 228.508 223.084 L 228.959 222.292 L 229.28 221.395 L 229.456 220.412 L 229.473 219.364 L 229.319 218.273 L 228.989 217.163 L 228.476 216.059 L 227.78 214.986 L 226.902 213.971 L 225.848 213.038 L 224.627 212.214 L 223.249 211.523 L 221.731 210.986 L 220.089 210.626 L 218.346 210.461 L 216.524 210.508 L 214.649 210.78 L 212.749 211.288 L 210.852 212.04 L 208.988 213.039 L 207.189 214.285 L 205.485 215.775 L 203.909 217.501 L 202.489 219.453 L 201.256 221.615 L 200.238 223.97 L 199.461 226.493 L 198.948 229.162 L 198.721 231.946 L 198.797 234.815 L 199.191 237.736 L 199.913 240.672 L 200.971 243.588 L 202.366 246.444 L 204.098 249.201 L 206.159 251.821 L 208.539 254.265 L 211.222 256.495 L 214.189 258.473 L 217.417 260.167 L 220.876 261.543 L 224.535 262.571 L 228.358 263.227 L 232.306 263.486 L 236.339 263.331 L 240.411 262.747 L 244.477 261.727 L 248.489 260.264 L 252.4 258.361 L 256.16 256.023 L 259.722 253.261 L 263.037 250.094 L 266.06 246.543 L 268.747 242.635 L 271.057 238.403 L 272.951 233.883 L 274.395 229.118 L 275.358 224.153 L 275.816 219.037 L 275.748 213.821 L 275.138 208.562 L 273.977 203.315 L 272.263 198.139 L 269.997 193.092 L 267.19 188.234 L 263.856 183.623 L 260.017 179.316 L 255.702 175.369 L 250.944 171.833 L 245.784 168.759 L 240.266 166.191 L 234.441 164.171 L 228.364 162.734 L 222.095 161.91 L 215.694 161.724 L 209.229 162.194 L 202.767 163.33 L 196.376 165.137 L 190.128 167.61 L 184.091 170.74 L 178.336 174.508 L 172.93 178.889 L 167.938 183.85 L 163.423 189.352 L 159.444 195.348 L 156.053 201.786 L 153.301 208.607 L 151.229 215.747 L 149.875 223.138 L 149.267 230.708 L 149.428 238.379 L 150.372 246.074 L 152.105 253.712 L 154.624 261.212 L 157.92 268.492 L 161.973 275.471 L 166.756 282.071 L 172.232 288.214 L 178.358 293.828 L 185.082 298.844 L 192.346 303.198 L 200.083 306.832 L 208.221 309.695 L 216.684 311.743 L 225.389 312.939 L 234.25 313.256 L 243.177 312.674 L 252.078 311.184 L 260.862 308.785 L 269.434 305.486 L 277.701 301.306 L 285.573 296.273 L 292.962 290.424 L 299.783 283.806 L 305.954 276.476 L 311.403 268.496 L 316.06 259.939 L 319.865 250.884 L 322.763 241.417 L 324.711 231.628 L 325.674 221.613 L 325.625 211.473 L 324.55 201.31 L 322.443 191.228 L 319.31 181.333 L 315.167 171.729 L 310.043 162.52 L 303.974 153.807 L 297.01 145.686 L 289.207 138.251 L 280.635 131.587 L 271.37 125.775 L 261.497 120.887 L 251.108 116.987 L 240.304 114.128 L 229.189 112.355 L 217.872 111.702 L 206.467 112.191 L 195.089 113.832 L 183.857 116.626 L 172.886 120.56 L 162.293 125.608 L 152.192 131.735 L 142.693 138.892 L 133.9 147.019 L 125.914 156.047 L 118.826 165.894 L 112.722 176.472 L 107.677 187.681 L 103.755 199.416 L 101.012 211.562 L 99.49 224 L 99.2212 236.609 L 100.224 249.261 L 102.504 261.826 L 106.053 274.177 L 110.852 286.184 L 116.868 297.72 L 124.052 308.662 L 132.347 318.891 L 141.682 328.294 L 151.973 336.766 L 163.127 344.207 L 175.042 350.531 L 187.603 355.66 L 200.692 359.528 L 214.181 362.079 L 227.938 363.274 L 241.824 363.084 L 255.701 361.494 L 269.426 358.506 L 282.86 354.133 L 295.861 348.405 L 308.292 341.364 L 320.02 333.068 L 330.92 323.587 L 340.87 313.003 L 349.758 301.413 L 357.483 288.924 L 363.954 275.652 L 369.092 261.724 L 372.829 247.275 L 375.112 232.445 L 375.904 217.381 L 375.18 202.234 L 372.932 187.157 L 369.165 172.303 L 363.904 157.825 L 357.185 143.876 L 349.062 130.601 L 339.603 118.141 L 328.889 106.633 L 317.018 96.2023 L 304.098 86.9657" fill="none" stroke="#00ff00" stroke-width="2"  />
<text x="225" y="25" text-anchor="middle" font-family="Arial" font-size="18" font-weight="bold">Archimedean spiral</text>
<text x="225" y="440" text-anchor="middle" font-family="Arial" font-size="14">X axis</text>
<text x="16.6667" y="225" text-anchor="middle" font-family="Arial" font-size="14" transform="rotate(-90 16.6667,225)">Y axis</text>
<rect x="290" y="60" width="150" height="30" fill="white" fill-opacity="0.8" stroke="black" stroke-width="1"/>
<line x1="300" y1="75" x2="330" y2="75" stroke="#00ff00" stroke-width="2"/>
<text x="335" y="80" font-family="Arial" font-size="12">r = 0.2θ</text>
</g>
<g transform="translate(675,450)">
<rect x="0" y="0" width="450" height="450" fill="none" stroke="black" stroke-width="1"/>
<circle cx="225" cy="225" r="31" fill="none" stroke="#c8c8c8" stroke-width="1"/>
<text x="246.92" y="203.08" text-anchor="middle" dominant-baseline="middle" font-family="Arial" font-size="10" fill="black">0.3</text>
<circle cx="225" cy="225" r="62" fill="none" stroke="#c8c8c8" stroke-width="1"/>
<text x="268.841" y="181.159" text-anchor="middle" dominant-baseline="middle" font-family="Arial" font-size="10" fill="black">0.7</text>
<circle cx="225" cy="225" r="93" fill="none" stroke="#c8c8c8" stroke-width="1"/>
<text x="290.761" y="159.239" text-anchor="middle" dominant-baseline="middle" font-family="Arial" font-size="10" fill="black">1.0</text>
<circle cx="225" cy="225" r="124" fill="none" stroke="#c8c8c8" stroke-width="1"/>
<text x="312.681" y="137.319" text-anchor="middle" dominant-baseline="middle" font-family="Arial" font-size="10" fill="black">1.3</text>
<circle cx="225" cy="225" r="155" fill="none" stroke="#c8c8c8" stroke-width="1"/>
<text x="334.602" y="115.398" text-anchor="middle" dominant-baseline="middle" font-family="Arial" font-size="10" fill="black">1.7</text>
<line x1="225" y1="225" x2="380" y2="225" stroke="#c8c8c8" stroke-width="1"/>
<text x="395" y="225" text-anchor="middle" dominant-baseline="middle" font-family="Arial" font-size="10" fill="black">0.0°</text>
<line x1="225" y1="225" x2="359.234" y2="147.5" stroke="#c8c8c8" stroke-width="1"/>
<text x="372.224" y="140" text-anchor="middle" dominant-baseline="middle" font-family="Arial" font-size="10" fill="black">30.0°</text>
<line x1="225" y1="225" x2="302.5" y2="90.7661" stroke="#c8c8c8" stroke-width="1"/>
<text x="310" y="77.7757" text-anchor="middle" dominant-baseline="middle" font-family="Arial" font-size="10" fill="black">60.0°</text>
<line x1="225" y1="225" x2="225" y2="70" stroke="#c8c8c8" stroke-width="1"/>
<text x="225" y="55" text-anchor="middle" dominant-baseline="middle" font-family="Arial" font-size="10" fill="black">90.0°</text>
<line x1="225" y1="225" x2="147.5" y2="90.7661" stroke="#c8c8c8" stroke-width="1"/>
<text x="140" y="77.7757" text-anchor="middle" dominant-baseline="middle" font-family="Arial" font-size="10" fill="black">120.0°</text>
<line x1="225" y1="225" x2="90.7661" y2="147.5" stroke="#c8c8c8" stroke-width="1"/>
<text x="77.7757" y="140" text-anchor="middle" dominant-baseline="middle" font-family="Arial" font-size="10" fill="black">150.0°</text>
<line x1="225" y1="225" x2="70" y2="225" stroke="#c8c8c8" stroke-width="1"/>
<text x="55" y="225" text-anchor="middle" dominant-baseline="middle" font-family="Arial" font-size="10" fill="black">180.0°</text>
<line x1="225" y1="225" x2="90.7661" y2="302.5" stroke="#c8c8c8" stroke-width="1"/>
<text x="77.7757" y="310" text-anchor="middle" dominant-baseline="middle" font-family="Arial" font-size="10" fill="black">210.0°</text>
<line x1="225" y1="225" x2="147.5" y2="359.234" stroke="#c8c8c8" stroke-width="1"/>
<text x="140" y="372.224" text-anchor="middle" dominant-baseline="middle" font-family="Arial" font-size="10" fill="black">240.0°</text>
<line x1="225" y1="225" x2="225" y2="380" stroke="#c8c8c8" stroke-width="1"/>
<text x="225" y="395" text-anchor="middle" dominant-baseline="middle" font-family="Arial" font-size="10" fill="black">270.0°</text>
<line x1="225" y1="225" x2="302.5" y2="359.234" stroke="#c8c8c8" stroke-width="1"/>
<text x="310" y="372.224" text-anchor="middle" dominant-baseline="middle" font-family="Arial" font-size="10" fill="black">300.0°</text>
<line x1="225" y1="225" x2="359.234" y2="302.5" stroke="#c8c8c8" stroke-width="1"/>
<text x="372.224" y="310" text-anchor="middle" dominant-baseline="middle" font-family="Arial" font-size="10" fill="black">330.0°</text>
<path d="M384.091 225 L 383.568 215.024 L 382.007 205.165 L 379.428 195.541 L 375.865 186.264 L 371.368 177.442 L 365.994 169.177 L 359.816 161.56 L 352.916 154.678 L 345.385 148.602 L 337.32 143.395 L 328.828 139.106 L 320.018 135.773 L 311.002 133.417 L 301.896 132.048 L 292.814 131.663 L 283.866 132.242 L 275.163 133.754 L 266.807 136.156 L 258.895 139.392 L 251.515 143.395 L 244.748 148.088 L 238.661 153.387 L 233.313 159.2 L 228.748 165.428 L 225 171.97 L 222.088 178.721 L 220.02 185.576 L 218.787 192.431 L 218.371 199.183 L 218.741 205.735 L 219.851 211.995 L 221.648 217.877 L 224.068 223.304 L 227.036 228.208 L 230.473 232.532 L 234.291 236.23 L 238.399 239.268 L 242.703 241.624 L 247.106 243.288 L 251.515 244.264 L 255.834 244.568 L 259.974 244.227 L 263.85 243.281 L 267.381 241.78 L 270.498 239.783 L 273.137 237.36 L 275.246 234.585 L 276.782 231.542 L 277.717 228.317 L 278.03 225 L 277.717 221.683 L 276.782 218.458 L 275.246 215.415 L 273.137 212.641 L 270.498 210.217 L 267.382 208.22 L 263.85 206.719 L 259.975 205.773 L 255.835 205.432 L 251.515 205.736 L 247.107 206.712 L 242.703 208.376 L 238.399 210.732 L 234.291 213.769 L 230.473 217.467 L 227.036 221.791 L 224.068 226.696 L 221.648 232.122 L 219.851 238.004 L 218.741 244.264 L 218.371 250.816 L 218.787 257.569 L 220.019 264.424 L 222.088 271.279 L 225 278.03 L 228.748 284.572 L 233.312 290.8 L 238.66 296.612 L 244.747 301.911 L 251.515 306.605 L 258.894 310.608 L 266.806 313.844 L 275.162 316.246 L 283.866 317.758 L 292.813 318.337 L 301.896 317.952 L 311.002 316.583 L 320.017 314.228 L 328.827 310.894 L 337.319 306.606 L 345.384 301.399 L 352.916 295.323 L 359.816 288.44 L 365.994 280.824 L 371.367 272.558 L 375.865 263.736 L 379.427 254.459 L 382.007 244.835 L 383.568 234.977 L 384.091 225.001 L 383.568 215.025 L 382.007 205.166 L 379.428 195.542 L 375.866 186.265 L 371.368 177.443 L 365.995 169.177 L 359.817 161.561 L 352.917 154.678 L 345.385 148.602 L 337.321 143.395 L 328.829 139.107 L 320.018 135.773 L 311.003 133.417 L 301.897 132.049 L 292.814 131.663 L 283.867 132.242 L 275.164 133.754 L 266.808 136.156 L 258.895 139.392 L 251.516 143.394 L 244.748 148.088 L 238.661 153.387 L 233.313 159.199 L 228.748 165.427 L 225 171.969 L 222.089 178.72 L 220.02 185.575 L 218.787 192.43 L 218.371 199.183 L 218.741 205.735 L 219.851 211.995 L 221.648 217.877 L 224.067 223.304 L 227.036 228.208 L 230.472 232.532 L 234.29 236.23 L 238.398 239.268 L 242.702 241.624 L 247.106 243.288 L 251.515 244.264 L 255.834 244.568 L 259.974 244.228 L 263.849 243.281 L 267.381 241.78 L 270.498 239.783 L 273.137 237.36 L 275.245 234.585 L 276.782 231.542 L 277.717 228.317 L 278.03 225 L 277.717 221.684 L 276.783 218.459 L 275.246 215.415 L 273.137 212.641 L 270.498 210.217 L 267.382 208.22 L 263.85 206.719 L 259.975 205.773 L 255.835 205.432 L 251.516 205.736 L 247.107 206.712 L 242.703 208.376 L 238.399 210.731 L 234.291 213.769 L 230.473 217.467 L 227.036 221.791 L 224.068 226.695 L 221.649 232.122 L 219.851 238.004 L 218.741 244.263 L 218.371 250.816 L 218.787 257.568 L 220.019 264.423 L 222.088 271.278 L 225 278.029 L 228.747 284.571 L 233.312 290.799 L 238.66 296.612 L 244.747 301.911 L 251.514 306.605 L 258.893 310.608 L 266.805 313.843 L 275.161 316.245 L 283.865 317.758 L 292.812 318.337 L 301.895 317.952 L 311.001 316.583 L 320.016 314.228 L 328.826 310.894 L 337.319 306.606 L 345.383 301.399 L 352.915 295.324 L 359.815 288.441 L 365.993 280.825 L 371.367 272.559 L 375.865 263.737 L 379.427 254.46 L 382.006 244.836 L 383.568 234.978 L 384.091 225.002 L 383.568 215.025 L 382.007 205.167 L 379.428 195.543 L 375.866 186.266 L 371.368 177.444 L 365.995 169.178 L 359.817 161.562 L 352.917 154.679 L 345.386 148.603 L 337.321 143.396 L 328.829 139.107 L 320.019 135.773 L 311.004 133.417 L 301.898 132.049 L 292.815 131.663 L 283.868 132.242 L 275.164 133.754 L 266.808 136.156 L 258.896 139.391 L 251.516 143.394 L 244.749 148.087 L 238.662 153.386 L 233.313 159.199 L 228.749 165.427 L 225.001 171.968 L 222.089 178.72 L 220.02 185.575 L 218.787 192.43 L 218.371 199.182 L 218.74 205.734 L 219.851 211.994 L 221.648 217.876 L 224.067 223.303 L 227.035 228.207 L 230.472 232.532 L 234.29 236.23 L 238.398 239.268 L 242.702 241.624 L 247.106 243.288 L 251.514 244.264 L 255.834 244.568 L 259.974 244.228 L 263.849 243.282 L 267.381 241.78 L 270.497 239.784 L 273.136 237.36 L 275.245 234.585 L 276.782 231.542 L 277.717 228.317 L 278.03 225.001 L 277.717 221.684 L 276.783 218.459 L 275.246 215.416 L 273.137 212.641 L 270.498 210.217 L 267.382 208.22 L 263.851 206.719 L 259.975 205.773 L 255.836 205.432 L 251.516 205.735 L 247.108 206.711 L 242.704 208.376 L 238.4 210.731 L 234.292 213.769 L 230.473 217.467 L 227.037 221.791 L 224.068 226.695 L 221.649 232.121 L 219.851 238.003 L 218.741 244.263 L 218.371 250.815 L 218.787 257.568 L 220.019 264.423 L 222.088 271.278 L 224.999 278.029 L 228.747 284.571 L 233.311 290.799 L 238.66 296.612 L 244.746 301.911 L 251.514 306.604 L 258.893 310.607 L 266.805 313.843 L 275.161 316.245 L 283.864 317.758 L 292.811 318.337 L 301.894 317.952 L 311 316.584 L 320.015 314.228 L 328.826 310.895 L 337.318 306.606 L 345.383 301.4 L 352.914 295.324 L 359.815 288.442 L 365.993 280.825 L 371.366 272.56 L 375.864 263.738 L 379.427 254.461 L 382.006 244.837 L 383.568 234.979" fill="none" stroke="#ff00ff" stroke-width="5"  />
<text x="225" y="25" text-anchor="middle" font-family="Arial" font-size="18" font-weight="bold">Limacon of Pascal</text>
<text x="225" y="440" text-anchor="middle" font-family="Arial" font-size="14">X axis</text>
<text x="16.6667" y="225" text-anchor="middle" font-family="Arial" font-size="14" transform="rotate(-90 16.6667,225)">Y axis</text>
<rect x="290" y="60" width="150" height="30" fill="white" fill-opacity="0.8" stroke="black" stroke-width="1"/>
<line x1="300" y1="75" x2="330" y2="75" stroke="#ff00ff" stroke-width="5"/>
<text x="335" y="80" font-family="Arial" font-size="12">r = 0.5 + cos(θ)</text>
</g>
</svg>
