<?xml version="1.0" encoding="UTF-8" standalone="no"?>
<!DOCTYPE svg PUBLIC "-//W3C//DTD SVG 1.1//EN" "http://www.w3.org/Graphics/SVG/1.1/DTD/svg11.dtd">
<svg width="1200" height="900" xmlns="http://www.w3.org/2000/svg" version="1.1">
<rect width="100%" height="100%" fill="white"/>
<g transform="translate(0,0)">
<rect x="0" y="0" width="600" height="450" fill="none" stroke="black" stroke-width="1"/>
<line x1="50" y1="50" x2="50" y2="400" stroke="#c8c8c8" stroke-width="1" />
<line x1="150" y1="50" x2="150" y2="400" stroke="#c8c8c8" stroke-width="1" />
<line x1="250" y1="50" x2="250" y2="400" stroke="#c8c8c8" stroke-width="1" />
<line x1="350" y1="50" x2="350" y2="400" stroke="#c8c8c8" stroke-width="1" />
<line x1="450" y1="50" x2="450" y2="400" stroke="#c8c8c8" stroke-width="1" />
<line x1="550" y1="50" x2="550" y2="400" stroke="#c8c8c8" stroke-width="1" />
<line x1="50" y1="400" x2="550" y2="400" stroke="#c8c8c8" stroke-width="1" />
<line x1="50" y1="330" x2="550" y2="330" stroke="#c8c8c8" stroke-width="1" />
<line x1="50" y1="260" x2="550" y2="260" stroke="#c8c8c8" stroke-width="1" />
<line x1="50" y1="190" x2="550" y2="190" stroke="#c8c8c8" stroke-width="1" />
<line x1="50" y1="120" x2="550" y2="120" stroke="#c8c8c8" stroke-width="1" />
<line x1="50" y1="50" x2="550" y2="50" stroke="#c8c8c8" stroke-width="1" />
<line x1="50" y1="225" x2="550" y2="225" stroke="black" stroke-width="1.5"/>
<line x1="300" y1="50" x2="300" y2="400" stroke="black" stroke-width="1.5"/>
<line x1="50" y1="225" x2="50" y2="230" stroke="black" stroke-width="1"/>
<text x="50" y="245" text-anchor="middle" font-family="Arial" font-size="12">-5.0</text>
<line x1="150" y1="225" x2="150" y2="230" stroke="black" stroke-width="1"/>
<text x="150" y="245" text-anchor="middle" font-family="Arial" font-size="12">-3.0</text>
<line x1="250" y1="225" x2="250" y2="230" stroke="black" stroke-width="1"/>
<text x="250" y="245" text-anchor="middle" font-family="Arial" font-size="12">-1.0</text>
<line x1="350" y1="225" x2="350" y2="230" stroke="black" stroke-width="1"/>
<text x="350" y="245" text-anchor="middle" font-family="Arial" font-size="12">1.0</text>
<line x1="450" y1="225" x2="450" y2="230" stroke="black" stroke-width="1"/>
<text x="450" y="245" text-anchor="middle" font-family="Arial" font-size="12">3.0</text>
<line x1="550" y1="225" x2="550" y2="230" stroke="black" stroke-width="1"/>
<text x="550" y="245" text-anchor="middle" font-family="Arial" font-size="12">5.0</text>
<line x1="300" y1="400" x2="295" y2="400" stroke="black" stroke-width="1"/>
<text x="285" y="405" text-anchor="end" font-family="Arial" font-size="12">-1.2</text>
<line x1="300" y1="330" x2="295" y2="330" stroke="black" stroke-width="1"/>
<text x="285" y="335" text-anchor="end" font-family="Arial" font-size="12">-0.7</text>
<line x1="300" y1="260" x2="295" y2="260" stroke="black" stroke-width="1"/>
<text x="285" y="265" text-anchor="end" font-family="Arial" font-size="12">-0.2</text>
<line x1="300" y1="190" x2="295" y2="190" stroke="black" stroke-width="1"/>
<text x="285" y="195" text-anchor="end" font-family="Arial" font-size="12">0.2</text>
<line x1="300" y1="120" x2="295" y2="120" stroke="black" stroke-width="1"/>
<text x="285" y="125" text-anchor="end" font-family="Arial" font-size="12">0.7</text>
<line x1="300" y1="50" x2="295" y2="50" stroke="black" stroke-width="1"/>
<text x="285" y="55" text-anchor="end" font-family="Arial" font-size="12">1.2</text>
<path d="M50 85.1569 L 55 81.7257 L 60 79.726 L 65 79.1779 L 70 80.0867 L 75 82.4435 L 80 86.2247 L 85 91.3925 L 90 97.8952 L 95 105.668 L 100 114.633 L 105 124.701 L 110 135.771 L 115 147.732 L 120 160.466 L 125 173.844 L 130 187.734 L 135 201.995 L 140 216.487 L 145 231.064 L 150 245.58 L 155 259.891 L 160 273.852 L 165 287.326 L 170 300.177 L 175 312.277 L 180 323.505 L 185 333.749 L 190 342.906 L 195 350.885 L 200 357.606 L 205 363.002 L 210 367.019 L 215 369.618 L 220 370.771 L 225 370.468 L 230 368.711 L 235 365.519 L 240 360.922 L 245 354.968 L 250 347.715 L 255 339.235 L 260 329.614 L 265 318.948 L 270 307.344 L 275 294.916 L 280 281.79 L 285 268.097 L 290 253.973 L 295 239.559 L 300 225 L 305 210.441 L 310 196.027 L 315 181.903 L 320 168.21 L 325 155.084 L 330 142.656 L 335 131.052 L 340 120.386 L 345 110.765 L 350 102.285 L 355 95.0323 L 360 89.0776 L 365 84.4811 L 370 81.2886 L 375 79.532 L 380 79.2288 L 385 80.3822 L 390 82.9806 L 395 86.9979 L 400 92.3941 L 405 99.1153 L 410 107.094 L 415 116.251 L 420 126.495 L 425 137.723 L 430 149.823 L 435 162.674 L 440 176.148 L 445 190.109 L 450 204.42 L 455 218.936 L 460 233.513 L 465 248.005 L 470 262.266 L 475 276.156 L 480 289.534 L 485 302.268 L 490 314.229 L 495 325.299 L 500 335.367 L 505 344.332 L 510 352.105 L 515 358.608 L 520 363.775 L 525 367.556 L 530 369.913 L 535 370.822 L 540 370.274 L 545 368.274" fill="none" stroke="#0000ff" stroke-width="2"  />
<path d="M50 183.633 L 55 197.8 L 60 212.24 L 65 226.807 L 70 241.356 L 75 255.741 L 80 269.819 L 85 283.45 L 90 296.496 L 95 308.829 L 100 320.323 L 105 330.865 L 110 340.349 L 115 348.681 L 120 355.777 L 125 361.567 L 130 365.991 L 135 369.007 L 140 370.585 L 145 370.707 L 150 369.374 L 155 366.598 L 160 362.407 L 165 356.844 L 170 349.963 L 175 341.833 L 180 332.537 L 185 322.165 L 190 310.823 L 195 298.623 L 200 285.688 L 205 272.146 L 210 258.134 L 215 243.79 L 220 229.258 L 225 214.684 L 230 200.213 L 235 185.99 L 240 172.156 L 245 158.851 L 250 146.206 L 255 134.349 L 260 123.397 L 265 113.46 L 270 104.639 L 275 97.0192 L 280 90.6786 L 285 85.6801 L 290 82.0736 L 295 79.8952 L 300 79.1667 L 305 79.8952 L 310 82.0736 L 315 85.6801 L 320 90.6786 L 325 97.0192 L 330 104.639 L 335 113.461 L 340 123.397 L 345 134.349 L 350 146.206 L 355 158.851 L 360 172.156 L 365 185.99 L 370 200.213 L 375 214.684 L 380 229.258 L 385 243.79 L 390 258.134 L 395 272.146 L 400 285.688 L 405 298.623 L 410 310.823 L 415 322.165 L 420 332.537 L 425 341.833 L 430 349.963 L 435 356.844 L 440 362.407 L 445 366.598 L 450 369.374 L 455 370.707 L 460 370.585 L 465 369.007 L 470 365.991 L 475 361.567 L 480 355.777 L 485 348.681 L 490 340.349 L 495 330.865 L 500 320.323 L 505 308.828 L 510 296.496 L 515 283.45 L 520 269.819 L 525 255.741 L 530 241.356 L 535 226.807 L 540 212.24 L 545 197.8" fill="none" stroke="#ff0000" stroke-width="2"  />
<path d="M50 185.332 L 55 198.278 L 60 212.289 L 65 226.807 L 70 241.252 L 75 255.05 L 80 267.65 L 85 278.55 L 90 287.315 L 95 293.595 L 100 297.141 L 105 297.81 L 110 295.577 L 115 290.531 L 120 282.872 L 125 272.905 L 130 261.029 L 135 247.717 L 140 233.498 L 145 218.941 L 150 204.626 L 155 191.123 L 160 178.97 L 165 168.653 L 170 160.581 L 175 155.078 L 180 152.363 L 185 152.543 L 190 155.612 L 195 161.448 L 200 169.816 L 205 180.385 L 210 192.733 L 215 206.367 L 220 220.744 L 225 235.29 L 230 249.426 L 235 262.589 L 240 274.253 L 245 283.953 L 250 291.303 L 255 296.01 L 260 297.886 L 265 296.856 L 270 292.961 L 275 286.357 L 280 277.307 L 285 266.172 L 290 253.395 L 295 239.486 L 300 225 L 305 210.514 L 310 196.605 L 315 183.828 L 320 172.693 L 325 163.643 L 330 157.039 L 335 153.144 L 340 152.114 L 345 153.99 L 350 158.697 L 355 166.047 L 360 175.748 L 365 187.411 L 370 200.574 L 375 214.71 L 380 229.256 L 385 243.633 L 390 257.267 L 395 269.615 L 400 280.184 L 405 288.552 L 410 294.388 L 415 297.457 L 420 297.637 L 425 294.922 L 430 289.419 L 435 281.347 L 440 271.03 L 445 258.877 L 450 245.374 L 455 231.059 L 460 216.502 L 465 202.283 L 470 188.971 L 475 177.095 L 480 167.128 L 485 159.469 L 490 154.423 L 495 152.19 L 500 152.859 L 505 156.405 L 510 162.685 L 515 171.45 L 520 182.35 L 525 194.95 L 530 208.748 L 535 223.193 L 540 237.711 L 545 251.723" fill="none" stroke="#00ff00" stroke-width="2"  />
<text x="300" y="25" text-anchor="middle" font-family="Arial" font-size="18" font-weight="bold">Trigonometric functions</text>
<text x="300" y="440" text-anchor="middle" font-family="Arial" font-size="14">x</text>
<text x="16.6667" y="225" text-anchor="middle" font-family="Arial" font-size="14" transform="rotate(-90 16.6667,225)">f(x)</text>
<rect x="440" y="60" width="150" height="70" fill="white" fill-opacity="0.8" stroke="black" stroke-width="1"/>
<line x1="450" y1="75" x2="480" y2="75" stroke="#0000ff" stroke-width="2"/>
<text x="485" y="80" font-family="Arial" font-size="12">sin(x)</text>
<line x1="450" y1="95" x2="480" y2="95" stroke="#ff0000" stroke-width="2"/>
<text x="485" y="100" font-family="Arial" font-size="12">cos(x)</text>
<line x1="450" y1="115" x2="480" y2="115" stroke="#00ff00" stroke-width="2"/>
<text x="485" y="120" font-family="Arial" font-size="12">0.5·sin(2x)</text>
</g>
<g transform="translate(675,0)">
<rect x="0" y="0" width="450" height="450" fill="none" stroke="black" stroke-width="1"/>
<line x1="50" y1="50" x2="50" y2="400" stroke="#c8c8c8" stroke-width="1" />
<line x1="120" y1="50" x2="120" y2="400" stroke="#c8c8c8" stroke-width="1" />
<line x1="190" y1="50" x2="190" y2="400" stroke="#c8c8c8" stroke-width="1" />
<line x1="260" y1="50" x2="260" y2="400" stroke="#c8c8c8" stroke-width="1" />
<line x1="330" y1="50" x2="330" y2="400" stroke="#c8c8c8" stroke-width="1" />
<line x1="400" y1="50" x2="400" y2="400" stroke="#c8c8c8" stroke-width="1" />
<line x1="50" y1="400" x2="400" y2="400" stroke="#c8c8c8" stroke-width="1" />
<line x1="50" y1="330" x2="400" y2="330" stroke="#c8c8c8" stroke-width="1" />
<line x1="50" y1="260" x2="400" y2="260" stroke="#c8c8c8" stroke-width="1" />
<line x1="50" y1="190" x2="400" y2="190" stroke="#c8c8c8" stroke-width="1" />
<line x1="50" y1="120" x2="400" y2="120" stroke="#c8c8c8" stroke-width="1" />
<line x1="50" y1="50" x2="400" y2="50" stroke="#c8c8c8" stroke-width="1" />
<line x1="67.5" y1="50" x2="67.5" y2="400" stroke="#e6e6e6" stroke-width="1" />
<line x1="85" y1="50" x2="85" y2="400" stroke="#e6e6e6" stroke-width="1" />
<line x1="102.5" y1="50" x2="102.5" y2="400" stroke="#e6e6e6" stroke-width="1" />
<line x1="137.5" y1="50" x2="137.5" y2="400" stroke="#e6e6e6" stroke-width="1" />
<line x1="155" y1="50" x2="155" y2="400" stroke="#e6e6e6" stroke-width="1" />
<line x1="172.5" y1="50" x2="172.5" y2="400" stroke="#e6e6e6" stroke-width="1" />
<line x1="207.5" y1="50" x2="207.5" y2="400" stroke="#e6e6e6" stroke-width="1" />
<line x1="225" y1="50" x2="225" y2="400" stroke="#e6e6e6" stroke-width="1" />
<line x1="242.5" y1="50" x2="242.5" y2="400" stroke="#e6e6e6" stroke-width="1" />
<line x1="277.5" y1="50" x2="277.5" y2="400" stroke="#e6e6e6" stroke-width="1" />
<line x1="295" y1="50" x2="295" y2="400" stroke="#e6e6e6" stroke-width="1" />
<line x1="312.5" y1="50" x2="312.5" y2="400" stroke="#e6e6e6" stroke-width="1" />
<line x1="347.5" y1="50" x2="347.5" y2="400" stroke="#e6e6e6" stroke-width="1" />
<line x1="365" y1="50" x2="365" y2="400" stroke="#e6e6e6" stroke-width="1" />
<line x1="382.5" y1="50" x2="382.5" y2="400" stroke="#e6e6e6" stroke-width="1" />
<line x1="50" y1="382.5" x2="400" y2="382.5" stroke="#e6e6e6" stroke-width="1" />
<line x1="50" y1="365" x2="400" y2="365" stroke="#e6e6e6" stroke-width="1" />
<line x1="50" y1="347.5" x2="400" y2="347.5" stroke="#e6e6e6" stroke-width="1" />
<line x1="50" y1="312.5" x2="400" y2="312.5" stroke="#e6e6e6" stroke-width="1" />
<line x1="50" y1="295" x2="400" y2="295" stroke="#e6e6e6" stroke-width="1" />
<line x1="50" y1="277.5" x2="400" y2="277.5" stroke="#e6e6e6" stroke-width="1" />
<line x1="50" y1="242.5" x2="400" y2="242.5" stroke="#e6e6e6" stroke-width="1" />
<line x1="50" y1="225" x2="400" y2="225" stroke="#e6e6e6" stroke-width="1" />
<line x1="50" y1="207.5" x2="400" y2="207.5" stroke="#e6e6e6" stroke-width="1" />
<line x1="50" y1="172.5" x2="400" y2="172.5" stroke="#e6e6e6" stroke-width="1" />
<line x1="50" y1="155" x2="400" y2="155" stroke="#e6e6e6" stroke-width="1" />
<line x1="50" y1="137.5" x2="400" y2="137.5" stroke="#e6e6e6" stroke-width="1" />
<line x1="50" y1="102.5" x2="400" y2="102.5" stroke="#e6e6e6" stroke-width="1" />
<line x1="50" y1="85" x2="400" y2="85" stroke="#e6e6e6" stroke-width="1" />
<line x1="50" y1="67.5" x2="400" y2="67.5" stroke="#e6e6e6" stroke-width="1" />
<line x1="50" y1="225" x2="400" y2="225" stroke="black" stroke-width="1.5"/>
<line x1="225" y1="50" x2="225" y2="400" stroke="black" stroke-width="1.5"/>
<line x1="50" y1="225" x2="50" y2="230" stroke="black" stroke-width="1"/>
<text x="50" y="245" text-anchor="middle" font-family="Arial" font-size="12">-1.5</text>
<line x1="120" y1="225" x2="120" y2="230" stroke="black" stroke-width="1"/>
<text x="120" y="245" text-anchor="middle" font-family="Arial" font-size="12">-0.9</text>
<line x1="190" y1="225" x2="190" y2="230" stroke="black" stroke-width="1"/>
<text x="190" y="245" text-anchor="middle" font-family="Arial" font-size="12">-0.3</text>
<line x1="260" y1="225" x2="260" y2="230" stroke="black" stroke-width="1"/>
<text x="260" y="245" text-anchor="middle" font-family="Arial" font-size="12">0.3</text>
<line x1="330" y1="225" x2="330" y2="230" stroke="black" stroke-width="1"/>
<text x="330" y="245" text-anchor="middle" font-family="Arial" font-size="12">0.9</text>
<line x1="400" y1="225" x2="400" y2="230" stroke="black" stroke-width="1"/>
<text x="400" y="245" text-anchor="middle" font-family="Arial" font-size="12">1.5</text>
<line x1="225" y1="400" x2="220" y2="400" stroke="black" stroke-width="1"/>
<text x="210" y="405" text-anchor="end" font-family="Arial" font-size="12">-1.5</text>
<line x1="225" y1="330" x2="220" y2="330" stroke="black" stroke-width="1"/>
<text x="210" y="335" text-anchor="end" font-family="Arial" font-size="12">-0.9</text>
<line x1="225" y1="260" x2="220" y2="260" stroke="black" stroke-width="1"/>
<text x="210" y="265" text-anchor="end" font-family="Arial" font-size="12">-0.3</text>
<line x1="225" y1="190" x2="220" y2="190" stroke="black" stroke-width="1"/>
<text x="210" y="195" text-anchor="end" font-family="Arial" font-size="12">0.3</text>
<line x1="225" y1="120" x2="220" y2="120" stroke="black" stroke-width="1"/>
<text x="210" y="125" text-anchor="end" font-family="Arial" font-size="12">0.9</text>
<line x1="225" y1="50" x2="220" y2="50" stroke="black" stroke-width="1"/>
<text x="210" y="55" text-anchor="end" font-family="Arial" font-size="12">1.5</text>
<path d="M341.667 225 L 341.432 217.601 L 340.728 210.231 L 339.558 202.921 L 337.927 195.699 L 335.842 188.596 L 333.31 181.639 L 330.341 174.857 L 326.949 168.277 L 323.146 161.925 L 318.948 155.827 L 314.372 150.008 L 309.436 144.491 L 304.159 139.298 L 298.565 134.45 L 292.673 129.966 L 286.51 125.865 L 280.098 122.164 L 273.465 118.876 L 266.637 116.016 L 259.641 113.595 L 252.505 111.622 L 245.259 110.106 L 237.931 109.052 L 230.551 108.465 L 223.149 108.348 L 215.754 108.7 L 208.397 109.521 L 201.106 110.806 L 193.912 112.552 L 186.842 114.75 L 179.927 117.392 L 173.192 120.467 L 166.667 123.964 L 160.376 127.867 L 154.346 132.161 L 148.6 136.829 L 143.161 141.852 L 138.053 147.21 L 133.294 152.881 L 128.905 158.843 L 124.902 165.071 L 121.303 171.54 L 118.121 178.225 L 115.369 185.097 L 113.059 192.131 L 111.2 199.297 L 109.799 206.566 L 108.862 213.91 L 108.392 221.298 L 108.392 228.701 L 108.862 236.09 L 109.799 243.433 L 111.2 250.703 L 113.059 257.869 L 115.369 264.902 L 118.121 271.775 L 121.302 278.459 L 124.902 284.929 L 128.904 291.157 L 133.294 297.118 L 138.052 302.789 L 143.161 308.147 L 148.599 313.171 L 154.345 317.839 L 160.376 322.133 L 166.666 326.036 L 173.192 329.532 L 179.926 332.608 L 186.842 335.25 L 193.911 337.448 L 201.105 339.194 L 208.396 340.479 L 215.754 341.3 L 223.149 341.652 L 230.551 341.535 L 237.931 340.948 L 245.259 339.894 L 252.505 338.378 L 259.64 336.405 L 266.636 333.984 L 273.465 331.124 L 280.098 327.836 L 286.509 324.135 L 292.673 320.034 L 298.564 315.551 L 304.159 310.703 L 309.435 305.51 L 314.372 299.992 L 318.948 294.173 L 323.146 288.075 L 326.949 281.723 L 330.341 275.143 L 333.309 268.361 L 335.841 261.404 L 337.927 254.301 L 339.558 247.08 L 340.728 239.77 L 341.432 232.4 L 341.667 225.001" fill="none" stroke="#0000ff" stroke-width="3"  />
<text x="225" y="25" text-anchor="middle" font-family="Arial" font-size="18" font-weight="bold">Circle with equal axes</text>
<text x="225" y="440" text-anchor="middle" font-family="Arial" font-size="14">x</text>
<text x="16.6667" y="225" text-anchor="middle" font-family="Arial" font-size="14" transform="rotate(-90 16.6667,225)">y</text>
<rect x="290" y="60" width="150" height="30" fill="white" fill-opacity="0.8" stroke="black" stroke-width="1"/>
<line x1="300" y1="75" x2="330" y2="75" stroke="#0000ff" stroke-width="3"/>
<text x="335" y="80" font-family="Arial" font-size="12">Unit circle</text>
</g>
<g transform="translate(0,450)">
<rect x="0" y="0" width="600" height="450" fill="none" stroke="black" stroke-width="1"/>
<line x1="50" y1="50" x2="50" y2="400" stroke="#c8c8c8" stroke-width="1" />
<line x1="150" y1="50" x2="150" y2="400" stroke="#c8c8c8" stroke-width="1" />
<line x1="250" y1="50" x2="250" y2="400" stroke="#c8c8c8" stroke-width="1" />
<line x1="350" y1="50" x2="350" y2="400" stroke="#c8c8c8" stroke-width="1" />
<line x1="450" y1="50" x2="450" y2="400" stroke="#c8c8c8" stroke-width="1" />
<line x1="550" y1="50" x2="550" y2="400" stroke="#c8c8c8" stroke-width="1" />
<line x1="50" y1="400" x2="550" y2="400" stroke="#c8c8c8" stroke-width="1" />
<line x1="50" y1="330" x2="550" y2="330" stroke="#c8c8c8" stroke-width="1" />
<line x1="50" y1="260" x2="550" y2="260" stroke="#c8c8c8" stroke-width="1" />
<line x1="50" y1="190" x2="550" y2="190" stroke="#c8c8c8" stroke-width="1" />
<line x1="50" y1="120" x2="550" y2="120" stroke="#c8c8c8" stroke-width="1" />
<line x1="50" y1="50" x2="550" y2="50" stroke="#c8c8c8" stroke-width="1" />
<line x1="75" y1="50" x2="75" y2="400" stroke="#e6e6e6" stroke-width="1" />
<line x1="100" y1="50" x2="100" y2="400" stroke="#e6e6e6" stroke-width="1" />
<line x1="125" y1="50" x2="125" y2="400" stroke="#e6e6e6" stroke-width="1" />
<line x1="175" y1="50" x2="175" y2="400" stroke="#e6e6e6" stroke-width="1" />
<line x1="200" y1="50" x2="200" y2="400" stroke="#e6e6e6" stroke-width="1" />
<line x1="225" y1="50" x2="225" y2="400" stroke="#e6e6e6" stroke-width="1" />
<line x1="275" y1="50" x2="275" y2="400" stroke="#e6e6e6" stroke-width="1" />
<line x1="300" y1="50" x2="300" y2="400" stroke="#e6e6e6" stroke-width="1" />
<line x1="325" y1="50" x2="325" y2="400" stroke="#e6e6e6" stroke-width="1" />
<line x1="375" y1="50" x2="375" y2="400" stroke="#e6e6e6" stroke-width="1" />
<line x1="400" y1="50" x2="400" y2="400" stroke="#e6e6e6" stroke-width="1" />
<line x1="425" y1="50" x2="425" y2="400" stroke="#e6e6e6" stroke-width="1" />
<line x1="475" y1="50" x2="475" y2="400" stroke="#e6e6e6" stroke-width="1" />
<line x1="500" y1="50" x2="500" y2="400" stroke="#e6e6e6" stroke-width="1" />
<line x1="525" y1="50" x2="525" y2="400" stroke="#e6e6e6" stroke-width="1" />
<line x1="50" y1="382.5" x2="550" y2="382.5" stroke="#e6e6e6" stroke-width="1" />
<line x1="50" y1="365" x2="550" y2="365" stroke="#e6e6e6" stroke-width="1" />
<line x1="50" y1="347.5" x2="550" y2="347.5" stroke="#e6e6e6" stroke-width="1" />
<line x1="50" y1="312.5" x2="550" y2="312.5" stroke="#e6e6e6" stroke-width="1" />
<line x1="50" y1="295" x2="550" y2="295" stroke="#e6e6e6" stroke-width="1" />
<line x1="50" y1="277.5" x2="550" y2="277.5" stroke="#e6e6e6" stroke-width="1" />
<line x1="50" y1="242.5" x2="550" y2="242.5" stroke="#e6e6e6" stroke-width="1" />
<line x1="50" y1="225" x2="550" y2="225" stroke="#e6e6e6" stroke-width="1" />
<line x1="50" y1="207.5" x2="550" y2="207.5" stroke="#e6e6e6" stroke-width="1" />
<line x1="50" y1="172.5" x2="550" y2="172.5" stroke="#e6e6e6" stroke-width="1" />
<line x1="50" y1="155" x2="550" y2="155" stroke="#e6e6e6" stroke-width="1" />
<line x1="50" y1="137.5" x2="550" y2="137.5" stroke="#e6e6e6" stroke-width="1" />
<line x1="50" y1="102.5" x2="550" y2="102.5" stroke="#e6e6e6" stroke-width="1" />
<line x1="50" y1="85" x2="550" y2="85" stroke="#e6e6e6" stroke-width="1" />
<line x1="50" y1="67.5" x2="550" y2="67.5" stroke="#e6e6e6" stroke-width="1" />
<line x1="50" y1="225" x2="550" y2="225" stroke="black" stroke-width="1.5"/>
<line x1="300" y1="50" x2="300" y2="400" stroke="black" stroke-width="1.5"/>
<line x1="50" y1="225" x2="50" y2="230" stroke="black" stroke-width="1"/>
<text x="50" y="245" text-anchor="middle" font-family="Arial" font-size="12">-2.5</text>
<line x1="150" y1="225" x2="150" y2="230" stroke="black" stroke-width="1"/>
<text x="150" y="245" text-anchor="middle" font-family="Arial" font-size="12">-1.5</text>
<line x1="250" y1="225" x2="250" y2="230" stroke="black" stroke-width="1"/>
<text x="250" y="245" text-anchor="middle" font-family="Arial" font-size="12">-0.5</text>
<line x1="350" y1="225" x2="350" y2="230" stroke="black" stroke-width="1"/>
<text x="350" y="245" text-anchor="middle" font-family="Arial" font-size="12">0.5</text>
<line x1="450" y1="225" x2="450" y2="230" stroke="black" stroke-width="1"/>
<text x="450" y="245" text-anchor="middle" font-family="Arial" font-size="12">1.5</text>
<line x1="550" y1="225" x2="550" y2="230" stroke="black" stroke-width="1"/>
<text x="550" y="245" text-anchor="middle" font-family="Arial" font-size="12">2.5</text>
<line x1="300" y1="400" x2="295" y2="400" stroke="black" stroke-width="1"/>
<text x="285" y="405" text-anchor="end" font-family="Arial" font-size="12">-1.5</text>
<line x1="300" y1="330" x2="295" y2="330" stroke="black" stroke-width="1"/>
<text x="285" y="335" text-anchor="end" font-family="Arial" font-size="12">-0.9</text>
<line x1="300" y1="260" x2="295" y2="260" stroke="black" stroke-width="1"/>
<text x="285" y="265" text-anchor="end" font-family="Arial" font-size="12">-0.3</text>
<line x1="300" y1="190" x2="295" y2="190" stroke="black" stroke-width="1"/>
<text x="285" y="195" text-anchor="end" font-family="Arial" font-size="12">0.3</text>
<line x1="300" y1="120" x2="295" y2="120" stroke="black" stroke-width="1"/>
<text x="285" y="125" text-anchor="end" font-family="Arial" font-size="12">0.9</text>
<line x1="300" y1="50" x2="295" y2="50" stroke="black" stroke-width="1"/>
<text x="285" y="55" text-anchor="end" font-family="Arial" font-size="12">1.5</text>
<path d="M500 225 L 499.597 217.601 L 498.391 210.231 L 496.386 202.921 L 493.59 195.699 L 490.014 188.596 L 485.674 181.639 L 480.585 174.857 L 474.77 168.277 L 468.251 161.925 L 461.054 155.827 L 453.209 150.008 L 444.747 144.491 L 435.702 139.298 L 426.111 134.45 L 416.012 129.966 L 405.445 125.865 L 394.454 122.164 L 383.083 118.876 L 371.377 116.016 L 359.384 113.595 L 347.152 111.622 L 334.73 110.106 L 322.168 109.052 L 309.517 108.465 L 296.827 108.348 L 284.15 108.7 L 271.537 109.521 L 259.039 110.806 L 246.706 112.552 L 234.587 114.75 L 222.731 117.392 L 211.187 120.467 L 200 123.964 L 189.216 127.867 L 178.878 132.161 L 169.028 136.829 L 159.705 141.852 L 150.947 147.21 L 142.79 152.881 L 135.265 158.843 L 128.404 165.071 L 122.233 171.54 L 116.778 178.225 L 112.062 185.097 L 108.102 192.131 L 104.914 199.297 L 102.512 206.566 L 100.906 213.91 L 100.101 221.298 L 100.101 228.701 L 100.906 236.09 L 102.512 243.433 L 104.914 250.703 L 108.101 257.869 L 112.061 264.902 L 116.778 271.775 L 122.233 278.459 L 128.403 284.929 L 135.264 291.157 L 142.789 297.118 L 150.947 302.789 L 159.705 308.147 L 169.027 313.171 L 178.878 317.839 L 189.215 322.133 L 199.999 326.036 L 211.186 329.532 L 222.73 332.608 L 234.586 335.25 L 246.705 337.448 L 259.038 339.194 L 271.536 340.479 L 284.149 341.3 L 296.826 341.652 L 309.516 341.535 L 322.167 340.948 L 334.729 339.894 L 347.151 338.378 L 359.383 336.405 L 371.376 333.984 L 383.082 331.124 L 394.453 327.836 L 405.444 324.135 L 416.011 320.034 L 426.11 315.551 L 435.701 310.703 L 444.746 305.51 L 453.208 299.992 L 461.054 294.173 L 468.25 288.075 L 474.769 281.723 L 480.585 275.143 L 485.673 268.361 L 490.014 261.404 L 493.589 254.301 L 496.386 247.08 L 498.391 239.77 L 499.597 232.4 L 500 225.001" fill="none" stroke="#ff0000" stroke-width="3"  />
<text x="300" y="25" text-anchor="middle" font-family="Arial" font-size="18" font-weight="bold">Ellipse without equal axes</text>
<text x="300" y="440" text-anchor="middle" font-family="Arial" font-size="14">x</text>
<text x="16.6667" y="225" text-anchor="middle" font-family="Arial" font-size="14" transform="rotate(-90 16.6667,225)">y</text>
<rect x="440" y="60" width="150" height="30" fill="white" fill-opacity="0.8" stroke="black" stroke-width="1"/>
<line x1="450" y1="75" x2="480" y2="75" stroke="#ff0000" stroke-width="3"/>
<text x="485" y="80" font-family="Arial" font-size="12">Ellipse 2:1</text>
</g>
<g transform="translate(675,450)">
<rect x="0" y="0" width="450" height="450" fill="none" stroke="black" stroke-width="1"/>
<line x1="50" y1="50" x2="50" y2="400" stroke="#6464c8" stroke-width="1" />
<line x1="120" y1="50" x2="120" y2="400" stroke="#6464c8" stroke-width="1" />
<line x1="190" y1="50" x2="190" y2="400" stroke="#6464c8" stroke-width="1" />
<line x1="260" y1="50" x2="260" y2="400" stroke="#6464c8" stroke-width="1" />
<line x1="330" y1="50" x2="330" y2="400" stroke="#6464c8" stroke-width="1" />
<line x1="400" y1="50" x2="400" y2="400" stroke="#6464c8" stroke-width="1" />
<line x1="50" y1="400" x2="400" y2="400" stroke="#6464c8" stroke-width="1" />
<line x1="50" y1="330" x2="400" y2="330" stroke="#6464c8" stroke-width="1" />
<line x1="50" y1="260" x2="400" y2="260" stroke="#6464c8" stroke-width="1" />
<line x1="50" y1="190" x2="400" y2="190" stroke="#6464c8" stroke-width="1" />
<line x1="50" y1="120" x2="400" y2="120" stroke="#6464c8" stroke-width="1" />
<line x1="50" y1="50" x2="400" y2="50" stroke="#6464c8" stroke-width="1" />
<line x1="67.5" y1="50" x2="67.5" y2="400" stroke="#c8c8ff" stroke-width="1" />
<line x1="85" y1="50" x2="85" y2="400" stroke="#c8c8ff" stroke-width="1" />
<line x1="102.5" y1="50" x2="102.5" y2="400" stroke="#c8c8ff" stroke-width="1" />
<line x1="137.5" y1="50" x2="137.5" y2="400" stroke="#c8c8ff" stroke-width="1" />
<line x1="155" y1="50" x2="155" y2="400" stroke="#c8c8ff" stroke-width="1" />
<line x1="172.5" y1="50" x2="172.5" y2="400" stroke="#c8c8ff" stroke-width="1" />
<line x1="207.5" y1="50" x2="207.5" y2="400" stroke="#c8c8ff" stroke-width="1" />
<line x1="225" y1="50" x2="225" y2="400" stroke="#c8c8ff" stroke-width="1" />
<line x1="242.5" y1="50" x2="242.5" y2="400" stroke="#c8c8ff" stroke-width="1" />
<line x1="277.5" y1="50" x2="277.5" y2="400" stroke="#c8c8ff" stroke-width="1" />
<line x1="295" y1="50" x2="295" y2="400" stroke="#c8c8ff" stroke-width="1" />
<line x1="312.5" y1="50" x2="312.5" y2="400" stroke="#c8c8ff" stroke-width="1" />
<line x1="347.5" y1="50" x2="347.5" y2="400" stroke="#c8c8ff" stroke-width="1" />
<line x1="365" y1="50" x2="365" y2="400" stroke="#c8c8ff" stroke-width="1" />
<line x1="382.5" y1="50" x2="382.5" y2="400" stroke="#c8c8ff" stroke-width="1" />
<line x1="50" y1="382.5" x2="400" y2="382.5" stroke="#c8c8ff" stroke-width="1" />
<line x1="50" y1="365" x2="400" y2="365" stroke="#c8c8ff" stroke-width="1" />
<line x1="50" y1="347.5" x2="400" y2="347.5" stroke="#c8c8ff" stroke-width="1" />
<line x1="50" y1="312.5" x2="400" y2="312.5" stroke="#c8c8ff" stroke-width="1" />
<line x1="50" y1="295" x2="400" y2="295" stroke="#c8c8ff" stroke-width="1" />
<line x1="50" y1="277.5" x2="400" y2="277.5" stroke="#c8c8ff" stroke-width="1" />
<line x1="50" y1="242.5" x2="400" y2="242.5" stroke="#c8c8ff" stroke-width="1" />
<line x1="50" y1="225" x2="400" y2="225" stroke="#c8c8ff" stroke-width="1" />
<line x1="50" y1="207.5" x2="400" y2="207.5" stroke="#c8c8ff" stroke-width="1" />
<line x1="50" y1="172.5" x2="400" y2="172.5" stroke="#c8c8ff" stroke-width="1" />
<line x1="50" y1="155" x2="400" y2="155" stroke="#c8c8ff" stroke-width="1" />
<line x1="50" y1="137.5" x2="400" y2="137.5" stroke="#c8c8ff" stroke-width="1" />
<line x1="50" y1="102.5" x2="400" y2="102.5" stroke="#c8c8ff" stroke-width="1" />
<line x1="50" y1="85" x2="400" y2="85" stroke="#c8c8ff" stroke-width="1" />
<line x1="50" y1="67.5" x2="400" y2="67.5" stroke="#c8c8ff" stroke-width="1" />
<line x1="50" y1="225" x2="400" y2="225" stroke="black" stroke-width="1.5"/>
<line x1="225" y1="50" x2="225" y2="400" stroke="black" stroke-width="1.5"/>
<line x1="50" y1="225" x2="50" y2="230" stroke="black" stroke-width="1"/>
<text x="50" y="245" text-anchor="middle" font-family="Arial" font-size="12">-1.5</text>
<line x1="120" y1="225" x2="120" y2="230" stroke="black" stroke-width="1"/>
<text x="120" y="245" text-anchor="middle" font-family="Arial" font-size="12">-0.9</text>
<line x1="190" y1="225" x2="190" y2="230" stroke="black" stroke-width="1"/>
<text x="190" y="245" text-anchor="middle" font-family="Arial" font-size="12">-0.3</text>
<line x1="260" y1="225" x2="260" y2="230" stroke="black" stroke-width="1"/>
<text x="260" y="245" text-anchor="middle" font-family="Arial" font-size="12">0.3</text>
<line x1="330" y1="225" x2="330" y2="230" stroke="black" stroke-width="1"/>
<text x="330" y="245" text-anchor="middle" font-family="Arial" font-size="12">0.9</text>
<line x1="400" y1="225" x2="400" y2="230" stroke="black" stroke-width="1"/>
<text x="400" y="245" text-anchor="middle" font-family="Arial" font-size="12">1.5</text>
<line x1="225" y1="400" x2="220" y2="400" stroke="black" stroke-width="1"/>
<text x="210" y="405" text-anchor="end" font-family="Arial" font-size="12">-1.5</text>
<line x1="225" y1="330" x2="220" y2="330" stroke="black" stroke-width="1"/>
<text x="210" y="335" text-anchor="end" font-family="Arial" font-size="12">-0.9</text>
<line x1="225" y1="260" x2="220" y2="260" stroke="black" stroke-width="1"/>
<text x="210" y="265" text-anchor="end" font-family="Arial" font-size="12">-0.3</text>
<line x1="225" y1="190" x2="220" y2="190" stroke="black" stroke-width="1"/>
<text x="210" y="195" text-anchor="end" font-family="Arial" font-size="12">0.3</text>
<line x1="225" y1="120" x2="220" y2="120" stroke="black" stroke-width="1"/>
<text x="210" y="125" text-anchor="end" font-family="Arial" font-size="12">0.9</text>
<line x1="225" y1="50" x2="220" y2="50" stroke="black" stroke-width="1"/>
<text x="210" y="55" text-anchor="end" font-family="Arial" font-size="12">1.5</text>
<path d="M225 225 L 228.499 222.667 L 231.996 220.335 L 235.486 218.004 L 238.966 215.677 L 242.434 213.353 L 245.887 211.034 L 249.32 208.72 L 252.732 206.413 L 256.119 204.113 L 259.477 201.822 L 262.805 199.54 L 266.099 197.268 L 269.355 195.007 L 272.572 192.759 L 275.746 190.523 L 278.874 188.301 L 281.954 186.093 L 284.983 183.901 L 287.957 181.726 L 290.875 179.568 L 293.734 177.428 L 296.53 175.307 L 299.263 173.206 L 301.928 171.126 L 304.525 169.067 L 307.049 167.031 L 309.5 165.017 L 311.875 163.028 L 314.172 161.064 L 316.388 159.125 L 318.522 157.213 L 320.572 155.327 L 322.536 153.47 L 324.413 151.641 L 326.199 149.841 L 327.895 148.072 L 329.498 146.333 L 331.007 144.626 L 332.421 142.951 L 333.738 141.308 L 334.957 139.7 L 336.077 138.125 L 337.097 136.585 L 338.017 135.08 L 338.834 133.612 L 339.55 132.18 L 340.162 130.785 L 340.67 129.428 L 341.075 128.109 L 341.374 126.828 L 341.57 125.587 L 341.66 124.386 L 341.645 123.225 L 341.525 122.105 L 341.301 121.026 L 340.972 119.988 L 340.538 118.993 L 340.001 118.04 L 339.36 117.129 L 338.616 116.262 L 337.769 115.438 L 336.822 114.659 L 335.773 113.923 L 334.625 113.231 L 333.379 112.585 L 332.034 111.983 L 330.594 111.427 L 329.058 110.916 L 327.429 110.45 L 325.708 110.031 L 323.896 109.657 L 321.995 109.33 L 320.006 109.049 L 317.933 108.814 L 315.775 108.626 L 313.536 108.484 L 311.217 108.389 L 308.821 108.34 L 306.349 108.338 L 303.804 108.383 L 301.188 108.475 L 298.504 108.613 L 295.753 108.797 L 292.939 109.028 L 290.063 109.306 L 287.129 109.63 L 284.139 109.999 L 281.096 110.415 L 278.002 110.877 L 274.861 111.384 L 271.675 111.937 L 268.447 112.535 L 265.179 113.178 L 261.876 113.866 L 258.539 114.598 L 255.172 115.375 L 251.778 116.195 L 248.36 117.059 L 244.921 117.966 L 241.464 118.915 L 237.992 119.907 L 234.509 120.942 L 231.016 122.017 L 227.519 123.134 L 224.019 124.292 L 220.52 125.49 L 217.025 126.728 L 213.538 128.005 L 210.06 129.321 L 206.596 130.675 L 203.149 132.067 L 199.721 133.496 L 196.316 134.962 L 192.937 136.464 L 189.587 138.001 L 186.268 139.573 L 182.985 141.179 L 179.739 142.819 L 176.534 144.491 L 173.373 146.196 L 170.258 147.932 L 167.192 149.699 L 164.178 151.496 L 161.219 153.323 L 158.318 155.178 L 155.476 157.061 L 152.697 158.972 L 149.983 160.909 L 147.337 162.871 L 144.761 164.858 L 142.256 166.869 L 139.827 168.904 L 137.473 170.961 L 135.199 173.04 L 133.005 175.139 L 130.895 177.258 L 128.868 179.397 L 126.929 181.553 L 125.078 183.727 L 123.316 185.918 L 121.646 188.124 L 120.069 190.345 L 118.587 192.58 L 117.2 194.828 L 115.911 197.088 L 114.719 199.359 L 113.627 201.64 L 112.635 203.93 L 111.744 206.229 L 110.955 208.536 L 110.268 210.849 L 109.685 213.168 L 109.206 215.491 L 108.831 217.819 L 108.56 220.149 L 108.395 222.481 L 108.334 224.814 L 108.378 227.147 L 108.527 229.48 L 108.781 231.81 L 109.139 234.138 L 109.602 236.462 L 110.169 238.782 L 110.839 241.096 L 111.611 243.404 L 112.486 245.704 L 113.462 247.996 L 114.538 250.279 L 115.714 252.551 L 116.988 254.813 L 118.36 257.063 L 119.827 259.3 L 121.389 261.523 L 123.044 263.732 L 124.791 265.925 L 126.628 268.101 L 128.554 270.261 L 130.566 272.402 L 132.664 274.525 L 134.844 276.627 L 137.106 278.709 L 139.447 280.77 L 141.864 282.808 L 144.357 284.823 L 146.922 286.814 L 149.557 288.781 L 152.261 290.722 L 155.029 292.636 L 157.861 294.524 L 160.753 296.383 L 163.703 298.215 L 166.708 300.017 L 169.766 301.788 L 172.873 303.53 L 176.028 305.239 L 179.226 306.917 L 182.465 308.562 L 185.743 310.173 L 189.056 311.751 L 192.402 313.294 L 195.776 314.801 L 199.177 316.273 L 202.602 317.708 L 206.046 319.105 L 209.508 320.466 L 212.983 321.788 L 216.469 323.071 L 219.963 324.315 L 223.462 325.52 L 226.962 326.684 L 230.46 327.807 L 233.953 328.89 L 237.438 329.931 L 240.912 330.93 L 244.372 331.886 L 247.814 332.8 L 251.235 333.67 L 254.633 334.498 L 258.005 335.281 L 261.347 336.02 L 264.655 336.715 L 267.929 337.365 L 271.163 337.971 L 274.356 338.531 L 277.505 339.045 L 280.607 339.514 L 283.658 339.937 L 286.657 340.315 L 289.6 340.646 L 292.485 340.931 L 295.309 341.169 L 298.07 341.361 L 300.765 341.507 L 303.392 341.605 L 305.949 341.658 L 308.432 341.663 L 310.841 341.622 L 313.172 341.534 L 315.424 341.4 L 317.595 341.219 L 319.682 340.992 L 321.684 340.718 L 323.599 340.398 L 325.425 340.032 L 327.161 339.619 L 328.805 339.161 L 330.356 338.658 L 331.811 338.108 L 333.171 337.514 L 334.433 336.874 L 335.597 336.19 L 336.661 335.462 L 337.625 334.689 L 338.488 333.872 L 339.248 333.012 L 339.905 332.108 L 340.459 331.162 L 340.91 330.173 L 341.255 329.142 L 341.497 328.07 L 341.633 326.956 L 341.665 325.801 L 341.591 324.607 L 341.413 323.372 L 341.129 322.098 L 340.742 320.785 L 340.25 319.434 L 339.654 318.045 L 338.955 316.619 L 338.154 315.156 L 337.251 313.657 L 336.246 312.123 L 335.142 310.553 L 333.939 308.95 L 332.637 307.313 L 331.239 305.643 L 329.745 303.941 L 328.157 302.207 L 326.476 300.443 L 324.703 298.648 L 322.841 296.824 L 320.891 294.971 L 318.855 293.09 L 316.734 291.181 L 314.53 289.247 L 312.246 287.286 L 309.884 285.301 L 307.445 283.292 L 304.932 281.259 L 302.346 279.204 L 299.692 277.127 L 296.97 275.029 L 294.183 272.911 L 291.334 270.774 L 288.426 268.619 L 285.46 266.446 L 282.44 264.257 L 279.368 262.052 L 276.247 259.832 L 273.08 257.598 L 269.87 255.352 L 266.62 253.093 L 263.332 250.823 L 260.01 248.542 L 256.656 246.252 L 253.273 243.954 L 249.865 241.648 L 246.435 239.335 L 242.985 237.017 L 239.52 234.694 L 236.041 232.367 L 232.552 230.037 L 229.057 227.705 L 225.557 225.372 L 222.058 223.038 L 218.561 220.706 L 215.07 218.375 L 211.587 216.047 L 208.117 213.723 L 204.662 211.403 L 201.225 209.088 L 197.81 206.78 L 194.419 204.479 L 191.056 202.186 L 187.723 199.903 L 184.424 197.629 L 181.161 195.367 L 177.937 193.116 L 174.757 190.878 L 171.621 188.654 L 168.533 186.444 L 165.496 184.249 L 162.513 182.071 L 159.586 179.91 L 156.718 177.768 L 153.911 175.644 L 151.168 173.539 L 148.492 171.456 L 145.884 169.393 L 143.348 167.353 L 140.885 165.337 L 138.498 163.343 L 136.189 161.375 L 133.959 159.432 L 131.812 157.515 L 129.748 155.626 L 127.771 153.764 L 125.88 151.93 L 124.079 150.126 L 122.369 148.352 L 120.751 146.608 L 119.227 144.896 L 117.798 143.215 L 116.465 141.568 L 115.231 139.954 L 114.095 138.373 L 113.058 136.828 L 112.123 135.318 L 111.289 133.843 L 110.557 132.405 L 109.929 131.005 L 109.404 129.641 L 108.983 128.316 L 108.666 127.03 L 108.454 125.782 L 108.347 124.575 L 108.345 123.407 L 108.448 122.281 L 108.656 121.195 L 108.969 120.151 L 109.386 119.149 L 109.907 118.189 L 110.531 117.271 L 111.259 116.397 L 112.089 115.567 L 113.021 114.78 L 114.053 114.037 L 115.185 113.339 L 116.416 112.685 L 117.745 112.076 L 119.17 111.512 L 120.691 110.994 L 122.305 110.521 L 124.012 110.095 L 125.81 109.714 L 127.697 109.379 L 129.671 109.09 L 131.731 108.848 L 133.876 108.652 L 136.102 108.503 L 138.408 108.401 L 140.792 108.345 L 143.252 108.335 L 145.786 108.373 L 148.391 108.457 L 151.064 108.587 L 153.805 108.765 L 156.609 108.988 L 159.475 109.258 L 162.4 109.575 L 165.381 109.937 L 168.416 110.346 L 171.502 110.8 L 174.636 111.301 L 177.815 111.846 L 181.037 112.437 L 184.298 113.073 L 187.596 113.754 L 190.927 114.479 L 194.29 115.248 L 197.68 116.061 L 201.094 116.918 L 204.53 117.818 L 207.984 118.761 L 211.454 119.747 L 214.936 120.774 L 218.427 121.843 L 221.924 122.954 L 225.423 124.105 L 228.923 125.297 L 232.418 126.528 L 235.907 127.799 L 239.387 129.109 L 242.853 130.457 L 246.303 131.843 L 249.734 133.266 L 253.143 134.726 L 256.526 136.222 L 259.882 137.754 L 263.205 139.32 L 266.495 140.921 L 269.747 142.555 L 272.958 144.223 L 276.127 145.922 L 279.249 147.654 L 282.323 149.416 L 285.345 151.208 L 288.313 153.03 L 291.224 154.881 L 294.075 156.76 L 296.864 158.666 L 299.589 160.598 L 302.246 162.557 L 304.834 164.54 L 307.35 166.548 L 309.792 168.578 L 312.157 170.632 L 314.444 172.707 L 316.651 174.803 L 318.775 176.92 L 320.815 179.055 L 322.768 181.209 L 324.634 183.38 L 326.409 185.568 L 328.094 187.772 L 329.686 189.99 L 331.183 192.223 L 332.585 194.469 L 333.891 196.727 L 335.098 198.996 L 336.206 201.276 L 337.214 203.565 L 338.121 205.863 L 338.926 208.168 L 339.629 210.48 L 340.229 212.798 L 340.725 215.121 L 341.116 217.448 L 341.404 219.778 L 341.586 222.109 L 341.664 224.443 L 341.636 226.776 L 341.504 229.108 L 341.267 231.439 L 340.925 233.768 L 340.479 236.092 L 339.929 238.413 L 339.275 240.728 L 338.519 243.037 L 337.66 245.338 L 336.7 247.631 L 335.64 249.916 L 334.48 252.19 L 333.221 254.454 L 331.865 256.705 L 330.413 258.944 L 328.866 261.17 L 327.226 263.381 L 325.493 265.576 L 323.67 267.756 L 321.759 269.918 L 319.76 272.063 L 317.676 274.188 L 315.509 276.294 L 313.26 278.379 L 310.931 280.443 L 308.526 282.485 L 306.045 284.504 L 303.491 286.499 L 300.867 288.469 L 298.174 290.414 L 295.416 292.333 L 292.594 294.225 L 289.711 296.089 L 286.77 297.925 L 283.774 299.732 L 280.724 301.508 L 277.625 303.254 L 274.478 304.969 L 271.286 306.652 L 268.053 308.302 L 264.781 309.919 L 261.474 311.502 L 258.133 313.05 L 254.763 314.563 L 251.366 316.041 L 247.945 317.481 L 244.504 318.885 L 241.045 320.252 L 237.571 321.58 L 234.086 322.869 L 230.594 324.12 L 227.096 325.33 L 223.596 326.501 L 220.097 327.631 L 216.603 328.72 L 213.116 329.768 L 209.641 330.773 L 206.178 331.737 L 202.733 332.657 L 199.308 333.535 L 195.906 334.369 L 192.53 335.159 L 189.184 335.905 L 185.869 336.607 L 182.59 337.265 L 179.349 337.877 L 176.149 338.444 L 172.993 338.966 L 169.884 339.443 L 166.825 339.873 L 163.817 340.258 L 160.865 340.596 L 157.971 340.888 L 155.137 341.134 L 152.366 341.334 L 149.66 341.487 L 147.022 341.593 L 144.454 341.653 L 141.958 341.666 L 139.538 341.632 L 137.194 341.552 L 134.929 341.425 L 132.746 341.251 L 130.645 341.031 L 128.629 340.765 L 126.7 340.452 L 124.86 340.093 L 123.109 339.688 L 121.451 339.237 L 119.885 338.741 L 118.414 338.199 L 117.039 337.612 L 115.761 336.979 L 114.582 336.302 L 113.501 335.581 L 112.522 334.815 L 111.643 334.005 L 110.866 333.152 L 110.192 332.255 L 109.622 331.315 L 109.155 330.333 L 108.793 329.309 L 108.535 328.243 L 108.382 327.136 L 108.333 325.988 L 108.39 324.8 L 108.552 323.571 L 108.819 322.303 L 109.19 320.997 L 109.665 319.652 L 110.244 318.269 L 110.927 316.848 L 111.712 315.391 L 112.599 313.898 L 113.587 312.369 L 114.675 310.806 L 115.863 309.208 L 117.149 307.576 L 118.532 305.911 L 120.011 304.214 L 121.584 302.485 L 123.251 300.726 L 125.008 298.936 L 126.856 297.116 L 128.793 295.268 L 130.815 293.391 L 132.923 291.487 L 135.113 289.557 L 137.385 287.6 L 139.735 285.619 L 142.162 283.613 L 144.663 281.584 L 147.237 279.532 L 149.881 277.459 L 152.592 275.364 L 155.369 273.25 L 158.208 271.116 L 161.107 268.963 L 164.064 266.793 L 167.076 264.607 L 170.139 262.404 L 173.252 260.187 L 176.412 257.955 L 179.616 255.71 L 182.86 253.453 L 186.142 251.185 L 189.459 248.906 L 192.808 246.618 L 196.186 244.321 L 199.59 242.016 L 203.017 239.704 L 206.464 237.387 L 209.927 235.064 L 213.404 232.738 L 216.892 230.408 L 220.386 228.076 L 223.885 225.743 L 227.385 223.41 L 230.883 221.077 L 234.375 218.746 L 237.859 216.418 L 241.331 214.093 L 244.789 211.772 L 248.229 209.456 L 251.648 207.147 L 255.043 204.845 L 258.411 202.551 L 261.749 200.266 L 265.053 197.991 L 268.322 195.726 L 271.552 193.473 L 274.74 191.233 L 277.883 189.007 L 280.978 186.795 L 284.024 184.598 L 287.016 182.417 L 289.952 180.253 L 292.83 178.108 L 295.646 175.981 L 298.399 173.873 L 301.087 171.786 L 303.705 169.72 L 306.253 167.677 L 308.728 165.656 L 311.127 163.659 L 313.449 161.687 L 315.691 159.74 L 317.851 157.819 L 319.929 155.925 L 321.92 154.058 L 323.825 152.22 L 325.64 150.411 L 327.365 148.632 L 328.998 146.884 L 330.537 145.166 L 331.981 143.481 L 333.329 141.828 L 334.579 140.208 L 335.731 138.623 L 336.783 137.072 L 337.735 135.556 L 338.585 134.076 L 339.333 132.632 L 339.978 131.225 L 340.519 129.856 L 340.957 128.525 L 341.29 127.232 L 341.519 125.978 L 341.643 124.764 L 341.661 123.591 L 341.575 122.457 L 341.384 121.365 L 341.088 120.314 L 340.688 119.305 L 340.183 118.339 L 339.575 117.415 L 338.864 116.534 L 338.05 115.696 L 337.135 114.902 L 336.118 114.152 L 335.002 113.447 L 333.786 112.786 L 332.473 112.17 L 331.063 111.599 L 329.558 111.074 L 327.958 110.594 L 326.266 110.16 L 324.483 109.771 L 322.61 109.429 L 320.649 109.133 L 318.602 108.884 L 316.471 108.681 L 314.258 108.524 L 311.964 108.414 L 309.593 108.351 L 307.145 108.334 L 304.623 108.364 L 302.029 108.44 L 299.366 108.564 L 296.636 108.733 L 293.842 108.95 L 290.986 109.212 L 288.07 109.521 L 285.098 109.877 L 282.071 110.278 L 278.993 110.725 L 275.867 111.218 L 272.694 111.756 L 269.479 112.34 L 266.224 112.969 L 262.932 113.642 L 259.605 114.36 L 256.248 115.123 L 252.862 115.929 L 249.451 116.779 L 246.019 117.672 L 242.567 118.608 L 239.099 119.587 L 235.619 120.608 L 232.13 121.67 L 228.634 122.774 L 225.134 123.919 L 221.635 125.104 L 218.138 126.33 L 214.648 127.594 L 211.167 128.898 L 207.698 130.24 L 204.245 131.62 L 200.811 133.037 L 197.398 134.491 L 194.011 135.982 L 190.651 137.508 L 187.322 139.069 L 184.027 140.664 L 180.769 142.293 L 177.55 143.955 L 174.375 145.65 L 171.245 147.376 L 168.163 149.133 L 165.133 150.921 L 162.156 152.738 L 159.236 154.584 L 156.375 156.459 L 153.576 158.36 L 150.841 160.289 L 148.173 162.243 L 145.574 164.223 L 143.046 166.226 L 140.592 168.253 L 138.215 170.303 L 135.915 172.375 L 133.695 174.468 L 131.558 176.581 L 129.505 178.714 L 127.537 180.865 L 125.658 183.033 L 123.867 185.219 L 122.168 187.42 L 120.562 189.636 L 119.049 191.867 L 117.631 194.11 L 116.311 196.367 L 115.088 198.634 L 113.964 200.912 L 112.94 203.2 L 112.017 205.496 L 111.195 207.8 L 110.476 210.112 L 109.86 212.429 L 109.347 214.751 L 108.939 217.077 L 108.635 219.406 L 108.436 221.738 L 108.342 224.071 L 108.352 226.404 L 108.468 228.737 L 108.689 231.068 L 109.014 233.397 L 109.443 235.722 L 109.977 238.044 L 110.614 240.359 L 111.354 242.669 L 112.196 244.972 L 113.14 247.267 L 114.185 249.553 L 115.329 251.829 L 116.572 254.094 L 117.912 256.348 L 119.349 258.589 L 120.881 260.816 L 122.507 263.03 L 124.225 265.228 L 126.033 267.41 L 127.931 269.575 L 129.916 271.722 L 131.986 273.851 L 134.141 275.96 L 136.377 278.049 L 138.692 280.116 L 141.086 282.161 L 143.555 284.184 L 146.097 286.183 L 148.71 288.157 L 151.392 290.106 L 154.141 292.029 L 156.953 293.925 L 159.826 295.794 L 162.757 297.634 L 165.745 299.446 L 168.787 301.227 L 171.878 302.978 L 175.018 304.698 L 178.202 306.386 L 181.429 308.042 L 184.695 309.664 L 187.997 311.252 L 191.332 312.806 L 194.698 314.325 L 198.091 315.808 L 201.508 317.254 L 204.947 318.664 L 208.403 320.036 L 211.875 321.371 L 215.358 322.666 L 218.85 323.923 L 222.347 325.14 L 225.847 326.317 L 229.346 327.454 L 232.841 328.549 L 236.329 329.604 L 239.807 330.616 L 243.271 331.586 L 246.719 332.513 L 250.148 333.398 L 253.554 334.239 L 256.934 335.036 L 260.285 335.79 L 263.605 336.499 L 266.89 337.163 L 270.137 337.783 L 273.344 338.357 L 276.507 338.886 L 279.624 339.37 L 282.692 339.808 L 285.707 340.199 L 288.668 340.545 L 291.572 340.845 L 294.416 341.098 L 297.197 341.305 L 299.914 341.465 L 302.563 341.579 L 305.142 341.646 L 307.649 341.667 L 310.082 341.64 L 312.438 341.567 L 314.715 341.448 L 316.912 341.282 L 319.026 341.069 L 321.055 340.81 L 322.998 340.505 L 324.853 340.153 L 326.618 339.756 L 328.291 339.312 L 329.872 338.823 L 331.358 338.288 L 332.748 337.708 L 334.042 337.083 L 335.237 336.413 L 336.333 335.699 L 337.329 334.94 L 338.224 334.137 L 339.017 333.29 L 339.707 332.401 L 340.294 331.468 L 340.778 330.493 L 341.157 329.475 L 341.431 328.416 L 341.601 327.315 L 341.666 326.174 L 341.626 324.992 L 341.481 323.769 L 341.231 322.508 L 340.876 321.207 L 340.418 319.868 L 339.855 318.491 L 339.189 317.077 L 338.42 315.626 L 337.549 314.138 L 336.577 312.615 L 335.505 311.057 L 334.333 309.465 L 333.062 307.838 L 331.695 306.179 L 330.231 304.487 L 328.673 302.763 L 327.021 301.008 L 325.278 299.223 L 323.444 297.408 L 321.522 295.564 L 319.513 293.692 L 317.418 291.792 L 315.241 289.866 L 312.982 287.914 L 310.645 285.936 L 308.23 283.934 L 305.74 281.909 L 303.178 279.861 L 300.545 277.791 L 297.844 275.699 L 295.078 273.588 L 292.248 271.457 L 289.359 269.307 L 286.411 267.14 L 283.408 264.956 L 280.352 262.756 L 277.247 260.541 L 274.094 258.312 L 270.897 256.069 L 267.659 253.814 L 264.383 251.547 L 261.071 249.27 L 257.727 246.983 L 254.353 244.687 L 250.954 242.383 L 247.53 240.073 L 244.086 237.756 L 240.625 235.434 L 237.15 233.108 L 233.664 230.779 L 230.171 228.448 L 226.672 226.115 L 223.173 223.782 L 219.674 221.449 L 216.181 219.117 L 212.695 216.788 L 209.221 214.463 L 205.761 212.141 L 202.318 209.825 L 198.895 207.514 L 195.496 205.211 L 192.124 202.916 L 188.781 200.629 L 185.471 198.352 L 182.196 196.086 L 178.96 193.832 L 175.765 191.589 L 172.615 189.361 L 169.511 187.146 L 166.458 184.947 L 163.457 182.763 L 160.512 180.597 L 157.625 178.448 L 154.798 176.318 L 152.035 174.207 L 149.337 172.117 L 146.707 170.048 L 144.148 168.001 L 141.662 165.976 L 139.25 163.976 L 136.916 161.999 L 134.661 160.048 L 132.487 158.123 L 130.397 156.225 L 128.391 154.354 L 126.473 152.511 L 124.643 150.697 L 122.904 148.913 L 121.256 147.16 L 119.702 145.438 L 118.243 143.747 L 116.879 142.089 L 115.613 140.464 L 114.446 138.873 L 113.378 137.317 L 112.41 135.795 L 111.544 134.309 L 110.779 132.859 L 110.118 131.447 L 109.56 130.071 L 109.106 128.734 L 108.756 127.435 L 108.511 126.175 L 108.37 124.955 L 108.335 123.775 L 108.404 122.635 L 108.579 121.536 L 108.858 120.479 L 109.242 119.463" fill="none" stroke="#00ff00" stroke-width="2"  />
<text x="225" y="25" text-anchor="middle" font-family="Arial" font-size="18" font-weight="bold">Lissajous curve with colored grid</text>
<text x="225" y="440" text-anchor="middle" font-family="Arial" font-size="14">sin(3t)</text>
<text x="16.6667" y="225" text-anchor="middle" font-family="Arial" font-size="14" transform="rotate(-90 16.6667,225)">sin(2t)</text>
<rect x="290" y="60" width="150" height="30" fill="white" fill-opacity="0.8" stroke="black" stroke-width="1"/>
<line x1="300" y1="75" x2="330" y2="75" stroke="#00ff00" stroke-width="2"/>
<text x="335" y="80" font-family="Arial" font-size="12">Lissajous curve</text>
</g>
</svg>
