<?xml version="1.0" encoding="UTF-8" standalone="no"?>
<!DOCTYPE svg PUBLIC "-//W3C//DTD SVG 1.1//EN" "http://www.w3.org/Graphics/SVG/1.1/DTD/svg11.dtd">
<svg width="1200" height="900" xmlns="http://www.w3.org/2000/svg" version="1.1">
<rect width="100%" height="100%" fill="white"/>
<g transform="translate(0,0)">
<rect x="0" y="0" width="600" height="450" fill="none" stroke="black" stroke-width="1"/>
<line x1="50" y1="50" x2="50" y2="400" stroke="#c8c8c8" stroke-width="1" />
<line x1="150" y1="50" x2="150" y2="400" stroke="#c8c8c8" stroke-width="1" />
<line x1="250" y1="50" x2="250" y2="400" stroke="#c8c8c8" stroke-width="1" />
<line x1="350" y1="50" x2="350" y2="400" stroke="#c8c8c8" stroke-width="1" />
<line x1="450" y1="50" x2="450" y2="400" stroke="#c8c8c8" stroke-width="1" />
<line x1="550" y1="50" x2="550" y2="400" stroke="#c8c8c8" stroke-width="1" />
<line x1="50" y1="400" x2="550" y2="400" stroke="#c8c8c8" stroke-width="1" />
<line x1="50" y1="330" x2="550" y2="330" stroke="#c8c8c8" stroke-width="1" />
<line x1="50" y1="260" x2="550" y2="260" stroke="#c8c8c8" stroke-width="1" />
<line x1="50" y1="190" x2="550" y2="190" stroke="#c8c8c8" stroke-width="1" />
<line x1="50" y1="120" x2="550" y2="120" stroke="#c8c8c8" stroke-width="1" />
<line x1="50" y1="50" x2="550" y2="50" stroke="#c8c8c8" stroke-width="1" />
<line x1="50" y1="225" x2="550" y2="225" stroke="black" stroke-width="1.5"/>
<line x1="300" y1="50" x2="300" y2="400" stroke="black" stroke-width="1.5"/>
<line x1="50" y1="225" x2="50" y2="230" stroke="black" stroke-width="1"/>
<text x="50" y="245" text-anchor="middle" font-family="Arial" font-size="12">-5.0</text>
<line x1="150" y1="225" x2="150" y2="230" stroke="black" stroke-width="1"/>
<text x="150" y="245" text-anchor="middle" font-family="Arial" font-size="12">-3.0</text>
<line x1="250" y1="225" x2="250" y2="230" stroke="black" stroke-width="1"/>
<text x="250" y="245" text-anchor="middle" font-family="Arial" font-size="12">-1.0</text>
<line x1="350" y1="225" x2="350" y2="230" stroke="black" stroke-width="1"/>
<text x="350" y="245" text-anchor="middle" font-family="Arial" font-size="12">1.0</text>
<line x1="450" y1="225" x2="450" y2="230" stroke="black" stroke-width="1"/>
<text x="450" y="245" text-anchor="middle" font-family="Arial" font-size="12">3.0</text>
<line x1="550" y1="225" x2="550" y2="230" stroke="black" stroke-width="1"/>
<text x="550" y="245" text-anchor="middle" font-family="Arial" font-size="12">5.0</text>
<line x1="300" y1="400" x2="295" y2="400" stroke="black" stroke-width="1"/>
<text x="285" y="405" text-anchor="end" font-family="Arial" font-size="12">-1.2</text>
<line x1="300" y1="330" x2="295" y2="330" stroke="black" stroke-width="1"/>
<text x="285" y="335" text-anchor="end" font-family="Arial" font-size="12">-0.7</text>
<line x1="300" y1="260" x2="295" y2="260" stroke="black" stroke-width="1"/>
<text x="285" y="265" text-anchor="end" font-family="Arial" font-size="12">-0.2</text>
<line x1="300" y1="190" x2="295" y2="190" stroke="black" stroke-width="1"/>
<text x="285" y="195" text-anchor="end" font-family="Arial" font-size="12">0.2</text>
<line x1="300" y1="120" x2="295" y2="120" stroke="black" stroke-width="1"/>
<text x="285" y="125" text-anchor="end" font-family="Arial" font-size="12">0.7</text>
<line x1="300" y1="50" x2="295" y2="50" stroke="black" stroke-width="1"/>
<text x="285" y="55" text-anchor="end" font-family="Arial" font-size="12">1.2</text>
<path d="M50 85.1569 L 55 81.7257 L 60 79.726 L 65 79.1779 L 70 80.0867 L 75 82.4435 L 80 86.2247 L 85 91.3925 L 90 97.8952 L 95 105.668 L 100 114.633 L 105 124.701 L 110 135.771 L 115 147.732 L 120 160.466 L 125 173.844 L 130 187.734 L 135 201.995 L 140 216.487 L 145 231.064 L 150 245.58 L 155 259.891 L 160 273.852 L 165 287.326 L 170 300.177 L 175 312.277 L 180 323.505 L 185 333.749 L 190 342.906 L 195 350.885 L 200 357.606 L 205 363.002 L 210 367.019 L 215 369.618 L 220 370.771 L 225 370.468 L 230 368.711 L 235 365.519 L 240 360.922 L 245 354.968 L 250 347.715 L 255 339.235 L 260 329.614 L 265 318.948 L 270 307.344 L 275 294.916 L 280 281.79 L 285 268.097 L 290 253.973 L 295 239.559 L 300 225 L 305 210.441 L 310 196.027 L 315 181.903 L 320 168.21 L 325 155.084 L 330 142.656 L 335 131.052 L 340 120.386 L 345 110.765 L 350 102.285 L 355 95.0323 L 360 89.0776 L 365 84.4811 L 370 81.2886 L 375 79.532 L 380 79.2288 L 385 80.3822 L 390 82.9806 L 395 86.9979 L 400 92.3941 L 405 99.1153 L 410 107.094 L 415 116.251 L 420 126.495 L 425 137.723 L 430 149.823 L 435 162.674 L 440 176.148 L 445 190.109 L 450 204.42 L 455 218.936 L 460 233.513 L 465 248.005 L 470 262.266 L 475 276.156 L 480 289.534 L 485 302.268 L 490 314.229 L 495 325.299 L 500 335.367 L 505 344.332 L 510 352.105 L 515 358.608 L 520 363.775 L 525 367.556 L 530 369.913 L 535 370.822 L 540 370.274 L 545 368.274" fill="none" stroke="#0000ff" stroke-width="2"  />
<text x="300" y="25" text-anchor="middle" font-family="Arial" font-size="18" font-weight="bold">Sine function</text>
<text x="300" y="440" text-anchor="middle" font-family="Arial" font-size="14">x</text>
<text x="16.6667" y="225" text-anchor="middle" font-family="Arial" font-size="14" transform="rotate(-90 16.6667,225)">sin(x)</text>
<rect x="60" y="60" width="150" height="30" fill="white" fill-opacity="0.8" stroke="black" stroke-width="1"/>
<line x1="70" y1="75" x2="100" y2="75" stroke="#0000ff" stroke-width="2"/>
<text x="105" y="80" font-family="Arial" font-size="12">sin(x)</text>
</g>
<g transform="translate(600,0)">
<rect x="0" y="0" width="600" height="450" fill="none" stroke="black" stroke-width="1"/>
<line x1="50" y1="50" x2="50" y2="400" stroke="#c8c8c8" stroke-width="1" />
<line x1="150" y1="50" x2="150" y2="400" stroke="#c8c8c8" stroke-width="1" />
<line x1="250" y1="50" x2="250" y2="400" stroke="#c8c8c8" stroke-width="1" />
<line x1="350" y1="50" x2="350" y2="400" stroke="#c8c8c8" stroke-width="1" />
<line x1="450" y1="50" x2="450" y2="400" stroke="#c8c8c8" stroke-width="1" />
<line x1="550" y1="50" x2="550" y2="400" stroke="#c8c8c8" stroke-width="1" />
<line x1="50" y1="400" x2="550" y2="400" stroke="#c8c8c8" stroke-width="1" />
<line x1="50" y1="330" x2="550" y2="330" stroke="#c8c8c8" stroke-width="1" />
<line x1="50" y1="260" x2="550" y2="260" stroke="#c8c8c8" stroke-width="1" />
<line x1="50" y1="190" x2="550" y2="190" stroke="#c8c8c8" stroke-width="1" />
<line x1="50" y1="120" x2="550" y2="120" stroke="#c8c8c8" stroke-width="1" />
<line x1="50" y1="50" x2="550" y2="50" stroke="#c8c8c8" stroke-width="1" />
<line x1="75" y1="50" x2="75" y2="400" stroke="#e6e6e6" stroke-width="1" />
<line x1="100" y1="50" x2="100" y2="400" stroke="#e6e6e6" stroke-width="1" />
<line x1="125" y1="50" x2="125" y2="400" stroke="#e6e6e6" stroke-width="1" />
<line x1="175" y1="50" x2="175" y2="400" stroke="#e6e6e6" stroke-width="1" />
<line x1="200" y1="50" x2="200" y2="400" stroke="#e6e6e6" stroke-width="1" />
<line x1="225" y1="50" x2="225" y2="400" stroke="#e6e6e6" stroke-width="1" />
<line x1="275" y1="50" x2="275" y2="400" stroke="#e6e6e6" stroke-width="1" />
<line x1="300" y1="50" x2="300" y2="400" stroke="#e6e6e6" stroke-width="1" />
<line x1="325" y1="50" x2="325" y2="400" stroke="#e6e6e6" stroke-width="1" />
<line x1="375" y1="50" x2="375" y2="400" stroke="#e6e6e6" stroke-width="1" />
<line x1="400" y1="50" x2="400" y2="400" stroke="#e6e6e6" stroke-width="1" />
<line x1="425" y1="50" x2="425" y2="400" stroke="#e6e6e6" stroke-width="1" />
<line x1="475" y1="50" x2="475" y2="400" stroke="#e6e6e6" stroke-width="1" />
<line x1="500" y1="50" x2="500" y2="400" stroke="#e6e6e6" stroke-width="1" />
<line x1="525" y1="50" x2="525" y2="400" stroke="#e6e6e6" stroke-width="1" />
<line x1="50" y1="382.5" x2="550" y2="382.5" stroke="#e6e6e6" stroke-width="1" />
<line x1="50" y1="365" x2="550" y2="365" stroke="#e6e6e6" stroke-width="1" />
<line x1="50" y1="347.5" x2="550" y2="347.5" stroke="#e6e6e6" stroke-width="1" />
<line x1="50" y1="312.5" x2="550" y2="312.5" stroke="#e6e6e6" stroke-width="1" />
<line x1="50" y1="295" x2="550" y2="295" stroke="#e6e6e6" stroke-width="1" />
<line x1="50" y1="277.5" x2="550" y2="277.5" stroke="#e6e6e6" stroke-width="1" />
<line x1="50" y1="242.5" x2="550" y2="242.5" stroke="#e6e6e6" stroke-width="1" />
<line x1="50" y1="225" x2="550" y2="225" stroke="#e6e6e6" stroke-width="1" />
<line x1="50" y1="207.5" x2="550" y2="207.5" stroke="#e6e6e6" stroke-width="1" />
<line x1="50" y1="172.5" x2="550" y2="172.5" stroke="#e6e6e6" stroke-width="1" />
<line x1="50" y1="155" x2="550" y2="155" stroke="#e6e6e6" stroke-width="1" />
<line x1="50" y1="137.5" x2="550" y2="137.5" stroke="#e6e6e6" stroke-width="1" />
<line x1="50" y1="102.5" x2="550" y2="102.5" stroke="#e6e6e6" stroke-width="1" />
<line x1="50" y1="85" x2="550" y2="85" stroke="#e6e6e6" stroke-width="1" />
<line x1="50" y1="67.5" x2="550" y2="67.5" stroke="#e6e6e6" stroke-width="1" />
<line x1="50" y1="400" x2="550" y2="400" stroke="black" stroke-width="1.5"/>
<line x1="300" y1="50" x2="300" y2="400" stroke="black" stroke-width="1.5"/>
<line x1="50" y1="400" x2="50" y2="405" stroke="black" stroke-width="1"/>
<text x="50" y="420" text-anchor="middle" font-family="Arial" font-size="12">-5.0</text>
<line x1="150" y1="400" x2="150" y2="405" stroke="black" stroke-width="1"/>
<text x="150" y="420" text-anchor="middle" font-family="Arial" font-size="12">-3.0</text>
<line x1="250" y1="400" x2="250" y2="405" stroke="black" stroke-width="1"/>
<text x="250" y="420" text-anchor="middle" font-family="Arial" font-size="12">-1.0</text>
<line x1="350" y1="400" x2="350" y2="405" stroke="black" stroke-width="1"/>
<text x="350" y="420" text-anchor="middle" font-family="Arial" font-size="12">1.0</text>
<line x1="450" y1="400" x2="450" y2="405" stroke="black" stroke-width="1"/>
<text x="450" y="420" text-anchor="middle" font-family="Arial" font-size="12">3.0</text>
<line x1="550" y1="400" x2="550" y2="405" stroke="black" stroke-width="1"/>
<text x="550" y="420" text-anchor="middle" font-family="Arial" font-size="12">5.0</text>
<line x1="300" y1="400" x2="295" y2="400" stroke="black" stroke-width="1"/>
<text x="285" y="405" text-anchor="end" font-family="Arial" font-size="12">0</text>
<line x1="300" y1="330" x2="295" y2="330" stroke="black" stroke-width="1"/>
<text x="285" y="335" text-anchor="end" font-family="Arial" font-size="12">5.0</text>
<line x1="300" y1="260" x2="295" y2="260" stroke="black" stroke-width="1"/>
<text x="285" y="265" text-anchor="end" font-family="Arial" font-size="12">10</text>
<line x1="300" y1="190" x2="295" y2="190" stroke="black" stroke-width="1"/>
<text x="285" y="195" text-anchor="end" font-family="Arial" font-size="12">15</text>
<line x1="300" y1="120" x2="295" y2="120" stroke="black" stroke-width="1"/>
<text x="285" y="125" text-anchor="end" font-family="Arial" font-size="12">20</text>
<line x1="300" y1="50" x2="295" y2="50" stroke="black" stroke-width="1"/>
<text x="285" y="55" text-anchor="end" font-family="Arial" font-size="12">25</text>
<path d="M50 50 L 55 63.86 L 60 77.44 L 65 90.74 L 70 103.76 L 75 116.5 L 80 128.96 L 85 141.14 L 90 153.04 L 95 164.66 L 100 176 L 105 187.06 L 110 197.84 L 115 208.34 L 120 218.56 L 125 228.5 L 130 238.16 L 135 247.54 L 140 256.64 L 145 265.46 L 150 274 L 155 282.26 L 160 290.24 L 165 297.94 L 170 305.36 L 175 312.5 L 180 319.36 L 185 325.94 L 190 332.24 L 195 338.26 L 200 344 L 205 349.46 L 210 354.64 L 215 359.54 L 220 364.16 L 225 368.5 L 230 372.56 L 235 376.34 L 240 379.84 L 245 383.06 L 250 386 L 255 388.66 L 260 391.04 L 265 393.14 L 270 394.96 L 275 396.5 L 280 397.76 L 285 398.74 L 290 399.44 L 295 399.86 L 300 400 L 305 399.86 L 310 399.44 L 315 398.74 L 320 397.76 L 325 396.5 L 330 394.96 L 335 393.14 L 340 391.04 L 345 388.66 L 350 386 L 355 383.06 L 360 379.84 L 365 376.34 L 370 372.56 L 375 368.5 L 380 364.16 L 385 359.54 L 390 354.64 L 395 349.46 L 400 344 L 405 338.26 L 410 332.24 L 415 325.94 L 420 319.36 L 425 312.5 L 430 305.36 L 435 297.94 L 440 290.24 L 445 282.26 L 450 274 L 455 265.46 L 460 256.64 L 465 247.54 L 470 238.16 L 475 228.5 L 480 218.56 L 485 208.34 L 490 197.84 L 495 187.06 L 500 176 L 505 164.66 L 510 153.04 L 515 141.14 L 520 128.96 L 525 116.5 L 530 103.76 L 535 90.74 L 540 77.44 L 545 63.8599" fill="none" stroke="#ff0000" stroke-width="2"  />
<text x="300" y="25" text-anchor="middle" font-family="Arial" font-size="18" font-weight="bold">Parabolic function</text>
<text x="300" y="440" text-anchor="middle" font-family="Arial" font-size="14">x</text>
<text x="16.6667" y="225" text-anchor="middle" font-family="Arial" font-size="14" transform="rotate(-90 16.6667,225)">f(x)</text>
<rect x="440" y="370" width="150" height="30" fill="white" fill-opacity="0.8" stroke="black" stroke-width="1"/>
<line x1="450" y1="385" x2="480" y2="385" stroke="#ff0000" stroke-width="2"/>
<text x="485" y="390" font-family="Arial" font-size="12">f(x) = x²</text>
</g>
<g transform="translate(0,450)">
<rect x="0" y="0" width="600" height="450" fill="none" stroke="black" stroke-width="1"/>
<line x1="50" y1="50" x2="50" y2="400" stroke="#c8c8c8" stroke-width="1" />
<line x1="150" y1="50" x2="150" y2="400" stroke="#c8c8c8" stroke-width="1" />
<line x1="250" y1="50" x2="250" y2="400" stroke="#c8c8c8" stroke-width="1" />
<line x1="350" y1="50" x2="350" y2="400" stroke="#c8c8c8" stroke-width="1" />
<line x1="450" y1="50" x2="450" y2="400" stroke="#c8c8c8" stroke-width="1" />
<line x1="550" y1="50" x2="550" y2="400" stroke="#c8c8c8" stroke-width="1" />
<line x1="50" y1="400" x2="550" y2="400" stroke="#c8c8c8" stroke-width="1" />
<line x1="50" y1="330" x2="550" y2="330" stroke="#c8c8c8" stroke-width="1" />
<line x1="50" y1="260" x2="550" y2="260" stroke="#c8c8c8" stroke-width="1" />
<line x1="50" y1="190" x2="550" y2="190" stroke="#c8c8c8" stroke-width="1" />
<line x1="50" y1="120" x2="550" y2="120" stroke="#c8c8c8" stroke-width="1" />
<line x1="50" y1="50" x2="550" y2="50" stroke="#c8c8c8" stroke-width="1" />
<line x1="50" y1="378.125" x2="550" y2="378.125" stroke="black" stroke-width="1.5"/>
<line x1="300" y1="50" x2="300" y2="400" stroke="black" stroke-width="1.5"/>
<line x1="50" y1="378.125" x2="50" y2="383.125" stroke="black" stroke-width="1"/>
<text x="50" y="398.125" text-anchor="middle" font-family="Arial" font-size="12">-5.0</text>
<line x1="150" y1="378.125" x2="150" y2="383.125" stroke="black" stroke-width="1"/>
<text x="150" y="398.125" text-anchor="middle" font-family="Arial" font-size="12">-3.0</text>
<line x1="250" y1="378.125" x2="250" y2="383.125" stroke="black" stroke-width="1"/>
<text x="250" y="398.125" text-anchor="middle" font-family="Arial" font-size="12">-1.0</text>
<line x1="350" y1="378.125" x2="350" y2="383.125" stroke="black" stroke-width="1"/>
<text x="350" y="398.125" text-anchor="middle" font-family="Arial" font-size="12">1.0</text>
<line x1="450" y1="378.125" x2="450" y2="383.125" stroke="black" stroke-width="1"/>
<text x="450" y="398.125" text-anchor="middle" font-family="Arial" font-size="12">3.0</text>
<line x1="550" y1="378.125" x2="550" y2="383.125" stroke="black" stroke-width="1"/>
<text x="550" y="398.125" text-anchor="middle" font-family="Arial" font-size="12">5.0</text>
<line x1="300" y1="400" x2="295" y2="400" stroke="black" stroke-width="1"/>
<text x="285" y="405" text-anchor="end" font-family="Arial" font-size="12">-1.0</text>
<line x1="300" y1="330" x2="295" y2="330" stroke="black" stroke-width="1"/>
<text x="285" y="335" text-anchor="end" font-family="Arial" font-size="12">2.2</text>
<line x1="300" y1="260" x2="295" y2="260" stroke="black" stroke-width="1"/>
<text x="285" y="265" text-anchor="end" font-family="Arial" font-size="12">5.4</text>
<line x1="300" y1="190" x2="295" y2="190" stroke="black" stroke-width="1"/>
<text x="285" y="195" text-anchor="end" font-family="Arial" font-size="12">8.6</text>
<line x1="300" y1="120" x2="295" y2="120" stroke="black" stroke-width="1"/>
<text x="285" y="125" text-anchor="end" font-family="Arial" font-size="12">11</text>
<line x1="300" y1="50" x2="295" y2="50" stroke="black" stroke-width="1"/>
<text x="285" y="55" text-anchor="end" font-family="Arial" font-size="12">15</text>
<path d="M50 376.329 L 55 376.237 L 60 376.141 L 65 376.039 L 70 375.932 L 75 375.819 L 80 375.701 L 85 375.577 L 90 375.446 L 95 375.309 L 100 375.165 L 105 375.013 L 110 374.853 L 115 374.685 L 120 374.509 L 125 374.324 L 130 374.129 L 135 373.924 L 140 373.709 L 145 373.482 L 150 373.244 L 155 372.994 L 160 372.731 L 165 372.454 L 170 372.163 L 175 371.858 L 180 371.536 L 185 371.199 L 190 370.843 L 195 370.47 L 200 370.078 L 205 369.665 L 210 369.231 L 215 368.775 L 220 368.296 L 225 367.792 L 230 367.262 L 235 366.705 L 240 366.12 L 245 365.504 L 250 364.857 L 255 364.177 L 260 363.462 L 265 362.71 L 270 361.92 L 275 361.089 L 280 360.215 L 285 359.297 L 290 358.332 L 295 357.317 L 300 356.25 L 305 355.128 L 310 353.949 L 315 352.71 L 320 351.407 L 325 350.037 L 330 348.597 L 335 347.083 L 340 345.491 L 345 343.818 L 350 342.059 L 355 340.21 L 360 338.266 L 365 336.223 L 370 334.074 L 375 331.816 L 380 329.441 L 385 326.945 L 390 324.321 L 395 321.563 L 400 318.663 L 405 315.614 L 410 312.409 L 415 309.04 L 420 305.497 L 425 301.774 L 430 297.859 L 435 293.744 L 440 289.417 L 445 284.869 L 450 280.088 L 455 275.062 L 460 269.777 L 465 264.222 L 470 258.382 L 475 252.243 L 480 245.789 L 485 239.004 L 490 231.871 L 495 224.372 L 500 216.489 L 505 208.202 L 510 199.49 L 515 190.331 L 520 180.703 L 525 170.581 L 530 159.94 L 535 148.753 L 540 136.993 L 545 124.63" fill="none" stroke="#00ff00" stroke-width="2"  />
<path d="M50 378.125 L 55 378.125 L 60 378.125 L 65 378.125 L 70 378.125 L 75 378.125 L 80 378.125 L 85 378.125 L 90 378.125 L 95 378.125 L 100 378.125 L 105 378.125 L 110 378.125 L 115 378.125 L 120 378.125 L 125 378.125 L 130 378.125 L 135 378.125 L 140 378.125 L 145 378.125 L 150 378.125 L 155 378.125 L 160 378.125 L 165 378.125 L 170 378.125 L 175 378.125 L 180 378.125 L 185 378.125 L 190 378.125 L 195 378.125 L 200 378.125 L 205 378.125 L 210 378.125 L 215 378.125 L 220 378.125 L 225 378.125 L 230 378.125 L 235 378.125 L 240 378.125 L 245 378.125 L 250 378.125 L 255 378.125 L 260 378.125 L 265 378.125 L 270 378.125 L 275 378.125 L 280 378.125 L 285 378.125 L 290 378.125 L 295 378.125 L 300 378.125 L 305 376.04 L 310 374.137 L 315 372.386 L 320 370.765 L 325 369.255 L 330 367.844 L 335 366.518 L 340 365.267 L 345 364.084 L 350 362.962 L 355 361.895 L 360 360.877 L 365 359.905 L 370 358.974 L 375 358.081 L 380 357.223 L 385 356.398 L 390 355.602 L 395 354.834 L 400 354.093 L 405 353.376 L 410 352.681 L 415 352.008 L 420 351.355 L 425 350.721 L 430 350.105 L 435 349.505 L 440 348.922 L 445 348.354 L 450 347.8 L 455 347.26 L 460 346.733 L 465 346.218 L 470 345.715 L 475 345.223 L 480 344.743 L 485 344.272 L 490 343.812 L 495 343.36 L 500 342.919 L 505 342.485 L 510 342.061 L 515 341.644 L 520 341.235 L 525 340.834 L 530 340.439 L 535 340.052 L 540 339.672 L 545 339.298" fill="none" stroke="#ff00ff" stroke-width="2"  />
<text x="350" y="356.25" text-anchor="middle" font-family="Arial" font-size="12" fill="#ff0000">Logarithmic Function</text>
<text x="300" y="25" text-anchor="middle" font-family="Arial" font-size="18" font-weight="bold">Exponential and logarithmic functions</text>
<text x="300" y="440" text-anchor="middle" font-family="Arial" font-size="14">x</text>
<text x="16.6667" y="225" text-anchor="middle" font-family="Arial" font-size="14" transform="rotate(-90 16.6667,225)">f(x)</text>
<rect x="60" y="350" width="150" height="50" fill="white" fill-opacity="0.8" stroke="black" stroke-width="1"/>
<line x1="70" y1="365" x2="100" y2="365" stroke="#00ff00" stroke-width="2"/>
<text x="105" y="370" font-family="Arial" font-size="12">exp(x/2)</text>
<line x1="70" y1="385" x2="100" y2="385" stroke="#ff00ff" stroke-width="2"/>
<text x="105" y="390" font-family="Arial" font-size="12">ln(x+1)</text>
</g>
<g transform="translate(600,450)">
<rect x="0" y="0" width="600" height="450" fill="none" stroke="black" stroke-width="1"/>
<line x1="50" y1="50" x2="50" y2="400" stroke="#c8c8c8" stroke-width="1" />
<line x1="150" y1="50" x2="150" y2="400" stroke="#c8c8c8" stroke-width="1" />
<line x1="250" y1="50" x2="250" y2="400" stroke="#c8c8c8" stroke-width="1" />
<line x1="350" y1="50" x2="350" y2="400" stroke="#c8c8c8" stroke-width="1" />
<line x1="450" y1="50" x2="450" y2="400" stroke="#c8c8c8" stroke-width="1" />
<line x1="550" y1="50" x2="550" y2="400" stroke="#c8c8c8" stroke-width="1" />
<line x1="50" y1="400" x2="550" y2="400" stroke="#c8c8c8" stroke-width="1" />
<line x1="50" y1="330" x2="550" y2="330" stroke="#c8c8c8" stroke-width="1" />
<line x1="50" y1="260" x2="550" y2="260" stroke="#c8c8c8" stroke-width="1" />
<line x1="50" y1="190" x2="550" y2="190" stroke="#c8c8c8" stroke-width="1" />
<line x1="50" y1="120" x2="550" y2="120" stroke="#c8c8c8" stroke-width="1" />
<line x1="50" y1="50" x2="550" y2="50" stroke="#c8c8c8" stroke-width="1" />
<line x1="50" y1="225" x2="550" y2="225" stroke="black" stroke-width="1.5"/>
<line x1="300" y1="50" x2="300" y2="400" stroke="black" stroke-width="1.5"/>
<line x1="50" y1="225" x2="50" y2="230" stroke="black" stroke-width="1"/>
<text x="50" y="245" text-anchor="middle" font-family="Arial" font-size="12">-5.0</text>
<line x1="150" y1="225" x2="150" y2="230" stroke="black" stroke-width="1"/>
<text x="150" y="245" text-anchor="middle" font-family="Arial" font-size="12">-3.0</text>
<line x1="250" y1="225" x2="250" y2="230" stroke="black" stroke-width="1"/>
<text x="250" y="245" text-anchor="middle" font-family="Arial" font-size="12">-1.0</text>
<line x1="350" y1="225" x2="350" y2="230" stroke="black" stroke-width="1"/>
<text x="350" y="245" text-anchor="middle" font-family="Arial" font-size="12">1.0</text>
<line x1="450" y1="225" x2="450" y2="230" stroke="black" stroke-width="1"/>
<text x="450" y="245" text-anchor="middle" font-family="Arial" font-size="12">3.0</text>
<line x1="550" y1="225" x2="550" y2="230" stroke="black" stroke-width="1"/>
<text x="550" y="245" text-anchor="middle" font-family="Arial" font-size="12">5.0</text>
<line x1="300" y1="400" x2="295" y2="400" stroke="black" stroke-width="1"/>
<text x="285" y="405" text-anchor="end" font-family="Arial" font-size="12">-5.0</text>
<line x1="300" y1="330" x2="295" y2="330" stroke="black" stroke-width="1"/>
<text x="285" y="335" text-anchor="end" font-family="Arial" font-size="12">-3.0</text>
<line x1="300" y1="260" x2="295" y2="260" stroke="black" stroke-width="1"/>
<text x="285" y="265" text-anchor="end" font-family="Arial" font-size="12">-1.0</text>
<line x1="300" y1="190" x2="295" y2="190" stroke="black" stroke-width="1"/>
<text x="285" y="195" text-anchor="end" font-family="Arial" font-size="12">1.0</text>
<line x1="300" y1="120" x2="295" y2="120" stroke="black" stroke-width="1"/>
<text x="285" y="125" text-anchor="end" font-family="Arial" font-size="12">3.0</text>
<line x1="300" y1="50" x2="295" y2="50" stroke="black" stroke-width="1"/>
<text x="285" y="55" text-anchor="end" font-family="Arial" font-size="12">5.0</text>
<path d="M50 215.072 L 55 218.472 L 60 221.938 L 65 225.434 L 70 228.925 L 75 232.378 L 80 235.757 L 85 239.028 L 90 242.159 L 95 245.119 L 100 247.878 L 105 250.408 L 110 252.684 L 115 254.684 L 120 256.387 L 125 257.776 L 130 258.838 L 135 259.562 L 140 259.94 L 145 259.97 L 150 259.65 L 155 258.984 L 160 257.978 L 165 256.643 L 170 254.991 L 175 253.04 L 180 250.809 L 185 248.32 L 190 245.598 L 195 242.67 L 200 239.565 L 205 236.315 L 210 232.952 L 215 229.51 L 220 226.022 L 225 222.524 L 230 219.051 L 235 215.638 L 240 212.317 L 245 209.124 L 250 206.089 L 255 203.244 L 260 200.615 L 265 198.231 L 270 196.113 L 275 194.285 L 280 192.763 L 285 191.563 L 290 190.698 L 295 190.175 L 300 190 L 305 190.175 L 310 190.698 L 315 191.563 L 320 192.763 L 325 194.285 L 330 196.113 L 335 198.231 L 340 200.615 L 345 203.244 L 350 206.089 L 355 209.124 L 360 212.317 L 365 215.638 L 370 219.051 L 375 222.524 L 380 226.022 L 385 229.51 L 390 232.952 L 395 236.315 L 400 239.565 L 405 242.67 L 410 245.598 L 415 248.32 L 420 250.809 L 425 253.04 L 430 254.991 L 435 256.643 L 440 257.978 L 445 258.984 L 450 259.65 L 455 259.97 L 460 259.94 L 465 259.562 L 470 258.838 L 475 257.776 L 480 256.387 L 485 254.684 L 490 252.684 L 495 250.408 L 500 247.878 L 505 245.119 L 510 242.159 L 515 239.028 L 520 235.757 L 525 232.378 L 530 228.925 L 535 225.434 L 540 221.938 L 545 218.472" fill="none" stroke="#00ffff" stroke-width="2" stroke-dasharray="10,6" />
<text x="300" y="25" text-anchor="middle" font-family="Arial" font-size="18" font-weight="bold">Different line styles</text>
<text x="300" y="440" text-anchor="middle" font-family="Arial" font-size="14">x</text>
<text x="16.6667" y="225" text-anchor="middle" font-family="Arial" font-size="14" transform="rotate(-90 16.6667,225)">f(x)</text>
<rect x="440" y="60" width="150" height="50" fill="white" fill-opacity="0.8" stroke="black" stroke-width="1"/>
<line x1="450" y1="75" x2="480" y2="75" stroke="#00ffff" stroke-width="2" stroke-dasharray="10,6"/>
<text x="485" y="80" font-family="Arial" font-size="12">cos(x) [dashed]</text>
<text x="485" y="100" font-family="Arial" font-size="12">tan(x) [points]</text>
</g>
</svg>
