<?xml version="1.0" encoding="UTF-8" standalone="no"?>
<!DOCTYPE svg PUBLIC "-//W3C//DTD SVG 1.1//EN" "http://www.w3.org/Graphics/SVG/1.1/DTD/svg11.dtd">
<svg width="1200" height="900" xmlns="http://www.w3.org/2000/svg" version="1.1">
<rect width="100%" height="100%" fill="white"/>
<g transform="translate(0,0)">
<rect x="0" y="0" width="600" height="450" fill="none" stroke="black" stroke-width="1"/>
<line x1="50" y1="400" x2="550" y2="400" stroke="black" stroke-width="1.5"/>
<line x1="305.45" y1="50" x2="305.45" y2="400" stroke="black" stroke-width="1.5"/>
<line x1="50" y1="400" x2="50" y2="405" stroke="black" stroke-width="1"/>
<text x="50" y="420" text-anchor="middle" font-family="Arial" font-size="12">-4.0</text>
<line x1="150" y1="400" x2="150" y2="405" stroke="black" stroke-width="1"/>
<text x="150" y="420" text-anchor="middle" font-family="Arial" font-size="12">-2.5</text>
<line x1="250" y1="400" x2="250" y2="405" stroke="black" stroke-width="1"/>
<text x="250" y="420" text-anchor="middle" font-family="Arial" font-size="12">-0.9</text>
<line x1="350" y1="400" x2="350" y2="405" stroke="black" stroke-width="1"/>
<text x="350" y="420" text-anchor="middle" font-family="Arial" font-size="12">0.7</text>
<line x1="450" y1="400" x2="450" y2="405" stroke="black" stroke-width="1"/>
<text x="450" y="420" text-anchor="middle" font-family="Arial" font-size="12">2.3</text>
<line x1="550" y1="400" x2="550" y2="405" stroke="black" stroke-width="1"/>
<text x="550" y="420" text-anchor="middle" font-family="Arial" font-size="12">3.9</text>
<line x1="305.45" y1="400" x2="300.45" y2="400" stroke="black" stroke-width="1"/>
<text x="290.45" y="405" text-anchor="end" font-family="Arial" font-size="12">0</text>
<line x1="305.45" y1="330" x2="300.45" y2="330" stroke="black" stroke-width="1"/>
<text x="290.45" y="335" text-anchor="end" font-family="Arial" font-size="12">55</text>
<line x1="305.45" y1="260" x2="300.45" y2="260" stroke="black" stroke-width="1"/>
<text x="290.45" y="265" text-anchor="end" font-family="Arial" font-size="12">111</text>
<line x1="305.45" y1="190" x2="300.45" y2="190" stroke="black" stroke-width="1"/>
<text x="290.45" y="195" text-anchor="end" font-family="Arial" font-size="12">166</text>
<line x1="305.45" y1="120" x2="300.45" y2="120" stroke="black" stroke-width="1"/>
<text x="290.45" y="125" text-anchor="end" font-family="Arial" font-size="12">222</text>
<line x1="305.45" y1="50" x2="300.45" y2="50" stroke="black" stroke-width="1"/>
<text x="290.45" y="55" text-anchor="end" font-family="Arial" font-size="12">278</text>
<rect x="52.0833" y="398.742" width="37.5" height="1.25764" fill="#0000ff" stroke="black" stroke-width="1" />
<rect x="93.75" y="389.939" width="37.5" height="10.0611" fill="#0000ff" stroke="black" stroke-width="1" />
<rect x="135.417" y="361.013" width="37.5" height="38.9867" fill="#0000ff" stroke="black" stroke-width="1" />
<rect x="177.083" y="279.267" width="37.5" height="120.733" fill="#0000ff" stroke="black" stroke-width="1" />
<rect x="218.75" y="127.093" width="37.5" height="272.907" fill="#0000ff" stroke="black" stroke-width="1" />
<rect x="260.417" y="81.8182" width="37.5" height="318.182" fill="#0000ff" stroke="black" stroke-width="1" />
<rect x="302.083" y="137.154" width="37.5" height="262.846" fill="#0000ff" stroke="black" stroke-width="1" />
<rect x="343.75" y="236.507" width="37.5" height="163.493" fill="#0000ff" stroke="black" stroke-width="1" />
<rect x="385.417" y="344.664" width="37.5" height="55.336" fill="#0000ff" stroke="black" stroke-width="1" />
<rect x="427.083" y="386.166" width="37.5" height="13.834" fill="#0000ff" stroke="black" stroke-width="1" />
<text x="300" y="25" text-anchor="middle" font-family="Arial" font-size="18" font-weight="bold">Normal distribution (10 bins)</text>
<text x="300" y="440" text-anchor="middle" font-family="Arial" font-size="14">Value</text>
<text x="16.6667" y="225" text-anchor="middle" font-family="Arial" font-size="14" transform="rotate(-90 16.6667,225)">Frequency</text>
<rect x="440" y="60" width="150" height="30" fill="white" fill-opacity="0.8" stroke="black" stroke-width="1"/>
<line x1="450" y1="75" x2="480" y2="75" stroke="#0000ff" stroke-width="2"/>
<text x="485" y="80" font-family="Arial" font-size="12">10 bins</text>
</g>
<g transform="translate(600,0)">
<rect x="0" y="0" width="600" height="450" fill="none" stroke="black" stroke-width="1"/>
<line x1="50" y1="400" x2="550" y2="400" stroke="black" stroke-width="1.5"/>
<line x1="320.476" y1="50" x2="320.476" y2="400" stroke="black" stroke-width="1.5"/>
<line x1="50" y1="400" x2="50" y2="405" stroke="black" stroke-width="1"/>
<text x="50" y="420" text-anchor="middle" font-family="Arial" font-size="12">-4.0</text>
<line x1="150" y1="400" x2="150" y2="405" stroke="black" stroke-width="1"/>
<text x="150" y="420" text-anchor="middle" font-family="Arial" font-size="12">-2.5</text>
<line x1="250" y1="400" x2="250" y2="405" stroke="black" stroke-width="1"/>
<text x="250" y="420" text-anchor="middle" font-family="Arial" font-size="12">-1.1</text>
<line x1="350" y1="400" x2="350" y2="405" stroke="black" stroke-width="1"/>
<text x="350" y="420" text-anchor="middle" font-family="Arial" font-size="12">0.4</text>
<line x1="450" y1="400" x2="450" y2="405" stroke="black" stroke-width="1"/>
<text x="450" y="420" text-anchor="middle" font-family="Arial" font-size="12">1.9</text>
<line x1="550" y1="400" x2="550" y2="405" stroke="black" stroke-width="1"/>
<text x="550" y="420" text-anchor="middle" font-family="Arial" font-size="12">3.4</text>
<line x1="320.476" y1="400" x2="315.476" y2="400" stroke="black" stroke-width="1"/>
<text x="305.476" y="405" text-anchor="end" font-family="Arial" font-size="12">0</text>
<line x1="320.476" y1="330" x2="315.476" y2="330" stroke="black" stroke-width="1"/>
<text x="305.476" y="335" text-anchor="end" font-family="Arial" font-size="12">19</text>
<line x1="320.476" y1="260" x2="315.476" y2="260" stroke="black" stroke-width="1"/>
<text x="305.476" y="265" text-anchor="end" font-family="Arial" font-size="12">39</text>
<line x1="320.476" y1="190" x2="315.476" y2="190" stroke="black" stroke-width="1"/>
<text x="305.476" y="195" text-anchor="end" font-family="Arial" font-size="12">58</text>
<line x1="320.476" y1="120" x2="315.476" y2="120" stroke="black" stroke-width="1"/>
<text x="305.476" y="125" text-anchor="end" font-family="Arial" font-size="12">78</text>
<line x1="320.476" y1="50" x2="315.476" y2="50" stroke="black" stroke-width="1"/>
<text x="305.476" y="55" text-anchor="end" font-family="Arial" font-size="12">97</text>
<rect x="65.4412" y="396.425" width="13.2353" height="3.57508" fill="#ff0000" stroke="black" stroke-width="1" />
<rect x="80.1471" y="400" width="13.2353" height="0" fill="#ff0000" stroke="black" stroke-width="1" />
<rect x="94.8529" y="400" width="13.2353" height="0" fill="#ff0000" stroke="black" stroke-width="1" />
<rect x="109.559" y="385.7" width="13.2353" height="14.3003" fill="#ff0000" stroke="black" stroke-width="1" />
<rect x="124.265" y="396.425" width="13.2353" height="3.57508" fill="#ff0000" stroke="black" stroke-width="1" />
<rect x="138.971" y="389.275" width="13.2353" height="10.7252" fill="#ff0000" stroke="black" stroke-width="1" />
<rect x="153.676" y="389.275" width="13.2353" height="10.7252" fill="#ff0000" stroke="black" stroke-width="1" />
<rect x="168.382" y="357.099" width="13.2353" height="42.9009" fill="#ff0000" stroke="black" stroke-width="1" />
<rect x="183.088" y="342.799" width="13.2353" height="57.2012" fill="#ff0000" stroke="black" stroke-width="1" />
<rect x="197.794" y="324.923" width="13.2353" height="75.0766" fill="#ff0000" stroke="black" stroke-width="1" />
<rect x="212.5" y="282.022" width="13.2353" height="117.978" fill="#ff0000" stroke="black" stroke-width="1" />
<rect x="227.206" y="249.847" width="13.2353" height="150.153" fill="#ff0000" stroke="black" stroke-width="1" />
<rect x="241.912" y="196.221" width="13.2353" height="203.779" fill="#ff0000" stroke="black" stroke-width="1" />
<rect x="256.618" y="131.869" width="13.2353" height="268.131" fill="#ff0000" stroke="black" stroke-width="1" />
<rect x="271.324" y="96.1185" width="13.2353" height="303.882" fill="#ff0000" stroke="black" stroke-width="1" />
<rect x="286.029" y="106.844" width="13.2353" height="293.156" fill="#ff0000" stroke="black" stroke-width="1" />
<rect x="300.735" y="106.844" width="13.2353" height="293.156" fill="#ff0000" stroke="black" stroke-width="1" />
<rect x="315.441" y="81.8182" width="13.2353" height="318.182" fill="#ff0000" stroke="black" stroke-width="1" />
<rect x="330.147" y="153.32" width="13.2353" height="246.68" fill="#ff0000" stroke="black" stroke-width="1" />
<rect x="344.853" y="128.294" width="13.2353" height="271.706" fill="#ff0000" stroke="black" stroke-width="1" />
<rect x="359.559" y="171.195" width="13.2353" height="228.805" fill="#ff0000" stroke="black" stroke-width="1" />
<rect x="374.265" y="217.671" width="13.2353" height="182.329" fill="#ff0000" stroke="black" stroke-width="1" />
<rect x="388.971" y="224.821" width="13.2353" height="175.179" fill="#ff0000" stroke="black" stroke-width="1" />
<rect x="403.676" y="292.748" width="13.2353" height="107.252" fill="#ff0000" stroke="black" stroke-width="1" />
<rect x="418.382" y="321.348" width="13.2353" height="78.6517" fill="#ff0000" stroke="black" stroke-width="1" />
<rect x="433.088" y="349.949" width="13.2353" height="50.0511" fill="#ff0000" stroke="black" stroke-width="1" />
<rect x="447.794" y="371.399" width="13.2353" height="28.6006" fill="#ff0000" stroke="black" stroke-width="1" />
<rect x="462.5" y="385.7" width="13.2353" height="14.3003" fill="#ff0000" stroke="black" stroke-width="1" />
<rect x="477.206" y="378.55" width="13.2353" height="21.4505" fill="#ff0000" stroke="black" stroke-width="1" />
<rect x="491.912" y="396.425" width="13.2353" height="3.57508" fill="#ff0000" stroke="black" stroke-width="1" />
<text x="300" y="25" text-anchor="middle" font-family="Arial" font-size="18" font-weight="bold">Normal distribution (30 bins)</text>
<text x="300" y="440" text-anchor="middle" font-family="Arial" font-size="14">Value</text>
<text x="16.6667" y="225" text-anchor="middle" font-family="Arial" font-size="14" transform="rotate(-90 16.6667,225)">Frequency</text>
<rect x="440" y="60" width="150" height="30" fill="white" fill-opacity="0.8" stroke="black" stroke-width="1"/>
<line x1="450" y1="75" x2="480" y2="75" stroke="#ff0000" stroke-width="2"/>
<text x="485" y="80" font-family="Arial" font-size="12">30 bins</text>
</g>
<g transform="translate(0,450)">
<rect x="0" y="0" width="600" height="450" fill="none" stroke="black" stroke-width="1"/>
<line x1="50" y1="400" x2="550" y2="400" stroke="black" stroke-width="1.5"/>
<line x1="71.7364" y1="50" x2="71.7364" y2="400" stroke="black" stroke-width="1.5"/>
<line x1="50" y1="400" x2="50" y2="405" stroke="black" stroke-width="1"/>
<text x="50" y="420" text-anchor="middle" font-family="Arial" font-size="12">-0.5</text>
<line x1="150" y1="400" x2="150" y2="405" stroke="black" stroke-width="1"/>
<text x="150" y="420" text-anchor="middle" font-family="Arial" font-size="12">1.8</text>
<line x1="250" y1="400" x2="250" y2="405" stroke="black" stroke-width="1"/>
<text x="250" y="420" text-anchor="middle" font-family="Arial" font-size="12">4.1</text>
<line x1="350" y1="400" x2="350" y2="405" stroke="black" stroke-width="1"/>
<text x="350" y="420" text-anchor="middle" font-family="Arial" font-size="12">6.4</text>
<line x1="450" y1="400" x2="450" y2="405" stroke="black" stroke-width="1"/>
<text x="450" y="420" text-anchor="middle" font-family="Arial" font-size="12">8.7</text>
<line x1="550" y1="400" x2="550" y2="405" stroke="black" stroke-width="1"/>
<text x="550" y="420" text-anchor="middle" font-family="Arial" font-size="12">10</text>
<line x1="71.7364" y1="400" x2="66.7364" y2="400" stroke="black" stroke-width="1"/>
<text x="56.7364" y="405" text-anchor="end" font-family="Arial" font-size="12">0</text>
<line x1="71.7364" y1="330" x2="66.7364" y2="330" stroke="black" stroke-width="1"/>
<text x="56.7364" y="335" text-anchor="end" font-family="Arial" font-size="12">12</text>
<line x1="71.7364" y1="260" x2="66.7364" y2="260" stroke="black" stroke-width="1"/>
<text x="56.7364" y="265" text-anchor="end" font-family="Arial" font-size="12">25</text>
<line x1="71.7364" y1="190" x2="66.7364" y2="190" stroke="black" stroke-width="1"/>
<text x="56.7364" y="195" text-anchor="end" font-family="Arial" font-size="12">38</text>
<line x1="71.7364" y1="120" x2="66.7364" y2="120" stroke="black" stroke-width="1"/>
<text x="56.7364" y="125" text-anchor="end" font-family="Arial" font-size="12">51</text>
<line x1="71.7364" y1="50" x2="66.7364" y2="50" stroke="black" stroke-width="1"/>
<text x="56.7364" y="55" text-anchor="end" font-family="Arial" font-size="12">64</text>
<rect x="61.9565" y="173.498" width="19.5652" height="226.502" fill="#00ff00" stroke="black" stroke-width="1" />
<rect x="83.6957" y="108.783" width="19.5652" height="291.217" fill="#00ff00" stroke="black" stroke-width="1" />
<rect x="105.435" y="146.533" width="19.5652" height="253.467" fill="#00ff00" stroke="black" stroke-width="1" />
<rect x="127.174" y="135.747" width="19.5652" height="264.253" fill="#00ff00" stroke="black" stroke-width="1" />
<rect x="148.913" y="97.9969" width="19.5652" height="302.003" fill="#00ff00" stroke="black" stroke-width="1" />
<rect x="170.652" y="151.926" width="19.5652" height="248.074" fill="#00ff00" stroke="black" stroke-width="1" />
<rect x="192.391" y="205.855" width="19.5652" height="194.145" fill="#00ff00" stroke="black" stroke-width="1" />
<rect x="214.13" y="81.8182" width="19.5652" height="318.182" fill="#00ff00" stroke="black" stroke-width="1" />
<rect x="235.87" y="92.604" width="19.5652" height="307.396" fill="#00ff00" stroke="black" stroke-width="1" />
<rect x="257.609" y="97.9969" width="19.5652" height="302.003" fill="#00ff00" stroke="black" stroke-width="1" />
<rect x="279.348" y="146.533" width="19.5652" height="253.467" fill="#00ff00" stroke="black" stroke-width="1" />
<rect x="301.087" y="87.2111" width="19.5652" height="312.789" fill="#00ff00" stroke="black" stroke-width="1" />
<rect x="322.826" y="141.14" width="19.5652" height="258.86" fill="#00ff00" stroke="black" stroke-width="1" />
<rect x="344.565" y="200.462" width="19.5652" height="199.538" fill="#00ff00" stroke="black" stroke-width="1" />
<rect x="366.304" y="135.747" width="19.5652" height="264.253" fill="#00ff00" stroke="black" stroke-width="1" />
<rect x="388.043" y="130.354" width="19.5652" height="269.646" fill="#00ff00" stroke="black" stroke-width="1" />
<rect x="409.783" y="135.747" width="19.5652" height="264.253" fill="#00ff00" stroke="black" stroke-width="1" />
<rect x="431.522" y="141.14" width="19.5652" height="258.86" fill="#00ff00" stroke="black" stroke-width="1" />
<rect x="453.261" y="87.2111" width="19.5652" height="312.789" fill="#00ff00" stroke="black" stroke-width="1" />
<rect x="475" y="108.783" width="19.5652" height="291.217" fill="#00ff00" stroke="black" stroke-width="1" />
<text x="300" y="25" text-anchor="middle" font-family="Arial" font-size="18" font-weight="bold">Uniform distribution</text>
<text x="300" y="440" text-anchor="middle" font-family="Arial" font-size="14">Value</text>
<text x="16.6667" y="225" text-anchor="middle" font-family="Arial" font-size="14" transform="rotate(-90 16.6667,225)">Frequency</text>
<rect x="440" y="60" width="150" height="30" fill="white" fill-opacity="0.8" stroke="black" stroke-width="1"/>
<line x1="450" y1="75" x2="480" y2="75" stroke="#00ff00" stroke-width="2"/>
<text x="485" y="80" font-family="Arial" font-size="12">Uniform distribution</text>
</g>
<g transform="translate(600,450)">
<rect x="0" y="0" width="600" height="450" fill="none" stroke="black" stroke-width="1"/>
<line x1="50" y1="400" x2="550" y2="400" stroke="black" stroke-width="1.5"/>
<line x1="71.9297" y1="50" x2="71.9297" y2="400" stroke="black" stroke-width="1.5"/>
<line x1="50" y1="400" x2="50" y2="405" stroke="black" stroke-width="1"/>
<text x="50" y="420" text-anchor="middle" font-family="Arial" font-size="12">-1.0</text>
<line x1="150" y1="400" x2="150" y2="405" stroke="black" stroke-width="1"/>
<text x="150" y="420" text-anchor="middle" font-family="Arial" font-size="12">3.6</text>
<line x1="250" y1="400" x2="250" y2="405" stroke="black" stroke-width="1"/>
<text x="250" y="420" text-anchor="middle" font-family="Arial" font-size="12">8.3</text>
<line x1="350" y1="400" x2="350" y2="405" stroke="black" stroke-width="1"/>
<text x="350" y="420" text-anchor="middle" font-family="Arial" font-size="12">12</text>
<line x1="450" y1="400" x2="450" y2="405" stroke="black" stroke-width="1"/>
<text x="450" y="420" text-anchor="middle" font-family="Arial" font-size="12">17</text>
<line x1="550" y1="400" x2="550" y2="405" stroke="black" stroke-width="1"/>
<text x="550" y="420" text-anchor="middle" font-family="Arial" font-size="12">22</text>
<line x1="71.9297" y1="400" x2="66.9297" y2="400" stroke="black" stroke-width="1"/>
<text x="56.9297" y="405" text-anchor="end" font-family="Arial" font-size="12">0</text>
<line x1="71.9297" y1="330" x2="66.9297" y2="330" stroke="black" stroke-width="1"/>
<text x="56.9297" y="335" text-anchor="end" font-family="Arial" font-size="12">71</text>
<line x1="71.9297" y1="260" x2="66.9297" y2="260" stroke="black" stroke-width="1"/>
<text x="56.9297" y="265" text-anchor="end" font-family="Arial" font-size="12">142</text>
<line x1="71.9297" y1="190" x2="66.9297" y2="190" stroke="black" stroke-width="1"/>
<text x="56.9297" y="195" text-anchor="end" font-family="Arial" font-size="12">213</text>
<line x1="71.9297" y1="120" x2="66.9297" y2="120" stroke="black" stroke-width="1"/>
<text x="56.9297" y="125" text-anchor="end" font-family="Arial" font-size="12">284</text>
<line x1="71.9297" y1="50" x2="66.9297" y2="50" stroke="black" stroke-width="1"/>
<text x="56.9297" y="55" text-anchor="end" font-family="Arial" font-size="12">355</text>
<rect x="64.0351" y="81.8182" width="15.7895" height="318.182" fill="#ff00ff" stroke="black" stroke-width="1" />
<rect x="81.5789" y="192.147" width="15.7895" height="207.853" fill="#ff00ff" stroke="black" stroke-width="1" />
<rect x="99.1228" y="254.208" width="15.7895" height="145.792" fill="#ff00ff" stroke="black" stroke-width="1" />
<rect x="116.667" y="304.447" width="15.7895" height="95.5531" fill="#ff00ff" stroke="black" stroke-width="1" />
<rect x="134.211" y="327.104" width="15.7895" height="72.8961" fill="#ff00ff" stroke="black" stroke-width="1" />
<rect x="151.754" y="353.701" width="15.7895" height="46.2989" fill="#ff00ff" stroke="black" stroke-width="1" />
<rect x="169.298" y="373.403" width="15.7895" height="26.5972" fill="#ff00ff" stroke="black" stroke-width="1" />
<rect x="186.842" y="370.448" width="15.7895" height="29.5525" fill="#ff00ff" stroke="black" stroke-width="1" />
<rect x="204.386" y="381.283" width="15.7895" height="18.7166" fill="#ff00ff" stroke="black" stroke-width="1" />
<rect x="221.93" y="391.134" width="15.7895" height="8.86575" fill="#ff00ff" stroke="black" stroke-width="1" />
<rect x="239.474" y="396.06" width="15.7895" height="3.94033" fill="#ff00ff" stroke="black" stroke-width="1" />
<rect x="257.018" y="397.045" width="15.7895" height="2.95525" fill="#ff00ff" stroke="black" stroke-width="1" />
<rect x="274.561" y="396.06" width="15.7895" height="3.94033" fill="#ff00ff" stroke="black" stroke-width="1" />
<rect x="292.105" y="397.045" width="15.7895" height="2.95525" fill="#ff00ff" stroke="black" stroke-width="1" />
<rect x="309.649" y="400" width="15.7895" height="0" fill="#ff00ff" stroke="black" stroke-width="1" />
<rect x="327.193" y="400" width="15.7895" height="0" fill="#ff00ff" stroke="black" stroke-width="1" />
<rect x="344.737" y="400" width="15.7895" height="0" fill="#ff00ff" stroke="black" stroke-width="1" />
<rect x="362.281" y="400" width="15.7895" height="0" fill="#ff00ff" stroke="black" stroke-width="1" />
<rect x="379.825" y="400" width="15.7895" height="0" fill="#ff00ff" stroke="black" stroke-width="1" />
<rect x="397.368" y="400" width="15.7895" height="0" fill="#ff00ff" stroke="black" stroke-width="1" />
<rect x="414.912" y="400" width="15.7895" height="0" fill="#ff00ff" stroke="black" stroke-width="1" />
<rect x="432.456" y="400" width="15.7895" height="0" fill="#ff00ff" stroke="black" stroke-width="1" />
<rect x="450" y="400" width="15.7895" height="0" fill="#ff00ff" stroke="black" stroke-width="1" />
<rect x="467.544" y="400" width="15.7895" height="0" fill="#ff00ff" stroke="black" stroke-width="1" />
<rect x="485.088" y="399.015" width="15.7895" height="0.985083" fill="#ff00ff" stroke="black" stroke-width="1" />
<text x="300" y="25" text-anchor="middle" font-family="Arial" font-size="18" font-weight="bold">Exponential distribution</text>
<text x="300" y="440" text-anchor="middle" font-family="Arial" font-size="14">Value</text>
<text x="16.6667" y="225" text-anchor="middle" font-family="Arial" font-size="14" transform="rotate(-90 16.6667,225)">Frequency</text>
<rect x="440" y="60" width="150" height="30" fill="white" fill-opacity="0.8" stroke="black" stroke-width="1"/>
<line x1="450" y1="75" x2="480" y2="75" stroke="#ff00ff" stroke-width="2"/>
<text x="485" y="80" font-family="Arial" font-size="12">Exponential distribution</text>
</g>
</svg>
